/* XPM */
static char *chiseled_quartz_block1709444007[] = {
/* columns rows colors chars-per-pixel */
"64 64 49 1 ",
"  c #DDD9CB",
". c #E2DED0",
"X c #EEE6DE",
"o c #ECE4DC",
"O c #EAE2DA",
"+ c #DEDACC",
"@ c #EEEAE6",
"# c #DFDBCD",
"$ c #E0DCCE",
"% c #F2EFED",
"& c #EDE5DD",
"* c #EEE8E2",
"= c #EBE3DB",
"- c #E6E0D4",
"; c #EEE7E0",
": c #EEE9E4",
"> c #E6E1D6",
", c #DEDACD",
"< c #E8E1D7",
"1 c #F1EEEC",
"2 c #ECE8E3",
"3 c #ECE8E2",
"4 c #E3DED1",
"5 c #ECE6E0",
"6 c #E0DBCF",
"7 c #EDE9E4",
"8 c #EBE4DD",
"9 c #E2DDD1",
"0 c #E9E1D8",
"q c #E7E4DC",
"w c #E7E1D7",
"e c #F1EDEB",
"r c #EFEBE7",
"t c #E9E6DE",
"y c #E3DFD2",
"u c #EFEBE8",
"i c #F0ECE9",
"p c #E2DDD3",
"a c #EFECEA",
"s c #E7E3D8",
"d c #E9E1D7",
"f c #E7E0D6",
"g c #EDE8E3",
"h c #E4DED3",
"j c #E9E2D9",
"k c #E3DFD5",
"l c #EFECE9",
"z c #DEDBCD",
"x c #EAE7E2",
/* pixels */
"    @@@@@@@@@@@@@@@@.##.@@@@@@:;XXXXXXXX    XoOOOOOOOO8g@@@@    ",
"    @@@@@@@@@@@@@@@@#  #@@@@:;XXXXXXXXXX    oOOOOOOO8g@@@@@@    ",
"    @@@@@@@@@@@@@@@@#  #7@@*XXXXXXXXXXXo    OOOOOO8g@@@@@@@@    ",
"    @@@@@@@@@@@@@@@@.##.87*XXXXXXXXXXXoO    OOOO8g@@@@@@@@@@    ",
"    @@@@@@:;XXXXXXXX....OOOOOOOOOOOOOOOO    @@@@@@@@@@@@@@@@    ",
"    @@@@:;XXXXXXXXXX....OOOOOOOOOOOOOOOO    @@@@@@@@@@@@@@@@    ",
"    @@@*XXXXXXXXXXXX....0OOOOOOOOOOOOOO<    @@@@@@@@@@@@@@@*    ",
"    @@*XXXXXXXXXXXXX....y0OOOOOOOOOOOO<6    @@@@@@@@@@@@@@*X    ",
"    @*XXXXXXXX&=OOoX.............#          @@@@@@@@@@@@@*XX    ",
"    *XXXXXXX&=OOOOOo............#           @@@@@@@@@@@@*XXX    ",
"    XXXXXX&=OOOOOOOO9..........#           ,@@@@@@@@@@:;XXXX#   ",
"    XXXX&=OOOOOOOOOOf9........#           ,q@@@@@@@@:;XXXXXX.#  ",
"    OOOOOOOOOOOOOOOOOOoXXXo-.$      p3@@@@@@@@@@@@:;XXXXXXXX..+ ",
"    OOOOOOOOOOOOOOOOOOOoXXXo.+      3@@@@@@@@@@@:;XXXXXXXXXX..$ ",
"    OOOOOOOOOOOOOOOOOOOOXXXo$      #2@@@@@@@@@@@:;XXXXXXXXXX...+",
"    OOOOOOOOOOOOOOOOOOOoXXo-+     #.>2@@@@@@@@@@@@:;XXXXXXXX...$",
"    OOOOOO=&w+#.............+    #...........#    +wOOOOOOOO...$",
"    OOOO=&XX+  #............$   #...........#      +OOOOOOOO...+",
"    OOOoXXXX#  #.............+ #............#       OOOOOOOO..$ ",
"    oOoXXXXX.##..............$#..............#      OOOOOOOO..+ ",
"    XXXXXXXX....sa%%%%%%%i@@@@@@@@*XXXoOOOOOOOd6    OOOOOOOO.#  ",
"    XXXXXXXX....a%%%%%%%i@@@@@@@@@@*XXXoOOOOOOOd    OOOOOOOO#   ",
"    oXXXXXXo....%%%%%%er@@@@@@@@@@@@*XXXOOOOOOOO    <OOOOOOd    ",
"    hoXXXXo-....%%%%er@@@@@@@@@@@@@@@*XXOOOOOOOO    6<OOOOd6    ",
"   +.........##.%i@@@@@@t4........$+  +w=OOOOOOO                ",
"   $........#  #i@@@@@@@4.......$+     +&OOOOOOO                ",
"  +.........#  ,@@@@@@@@........#       X=OOOOOO+               ",
"  $..........#,q@@@@@@@@.........#      X&OOOOOOw+              ",
"%%%%%%%%%i@@@@@@@@@@@@@@....>2@@@@3p    XXXXXXXX;:@@@@@@@@@@u1%%",
"%%%%%%%%i@@@@@@@@@@@@@@@....2@@@@@@3    XXXXXXXXXX;:@@@@@@@@1%%%",
"%%%%%%er@@@@@@@@@@@@@@@5....@@@@@@@*#  #XXXXXXXXXX;:@@@@@@@@re%%",
"%%%%er@@@@@@@@@@@@@@@@5O....@@@@@@*X.##.XXXXXXXX;:@@@@@@@@@@@@re",
"@@@@@@@@@@@@@@:;XXXXoOOO.##.@@@@@*XX....@@@@@@@@@@@@@@@@@@@@@@@@",
"@@@@@@@@@@@@:;XXXXXXOOOO#  #@@@@*XXX....@@@@@@@@@@@@@@@@@@@@@@@@",
"@@@@@@@@@@@@:;XXXXXXOOOO    3@@*XXXo....@@@@@@@@@@@@@@@@@@@@@@@@",
"@@@@@@@@@@@@@@:;XXXXoOOO    p3*XXXo-....@@@@@@@@@@@@@@@@@@@@@@@@",
".$$...........4j=&XXXXoO      #.........@@@@@@@@t4.......##.....",
".++............4OO=&XXXo       #........@@@@@@@@4.......#  #....",
"$  $............5OOOoXXX,     +$.......4@@@@@@@5........#  #....",
"+  +............@5OOOoXXq,  +$........4t@@@@@@5O.........##.....",
"    sa%%%i2>.##.@@@@@@@@@@@@@@@@@@@@@@@@@@:;XoOO....sa%%%i2>...$",
"    a%%%i@@2#  #@@@@@@@@@@@@@@@@@@@@@@@@:;XXoOOO....a%%%i@@2...+",
"    %%%i@@@@    3@@@@@@@@@@@@@@@@@@@@@@*XXXoOOO0....%%%i@@@@..$ ",
"    %%i@@@@@    p3@@@@@@@@@@@@@@@@@@@@*XXXoOOO0y....%%i@@@@@..+ ",
"   +%i@@@@@@      #..........$#...............$++$..%i@@@@@@.#  ",
"   $i@@@@@@@       #.........+ #............$+    +$i@@@@@@@#   ",
"  +.@@@@@@@@,      #........$   #...........#      ,@@@@@@@@    ",
"  $.@@@@@@@@q,    #.........+    #...........#    ,q@@@@@@@@    ",
" +..@@@@@@@@@@@@@@@@@i1u@@2>      #.sa%%%%i@@@@@@@@@@@@@@@@@    ",
" $..@@@@@@@@@@@@@@@@i%%1@@@2       #a%%%%%%i@@@@@@@@@@@@@@@@    ",
"+...@@@@@@@@@@@@@@re%%%i@@@2        a%%%%%%%@@@@@@@@@@@@@@@*    ",
"$...@@@@@@@@@@@@re%%%%i@@@2>        kl%%%%%%@@@@@@@@@@@@@@*X    ",
"$...XXXXXXXXXXXXXoO=f9......+             zx:@@@@@@@@@@@@*XX    ",
"+...XXXXXXXXXXXXoOO&9.......$              z;@@@@@@@@@@@*XXX    ",
" $..oXXXXXXXXXXoOO=X.........+              X:@@@@@@@@:;XXXX    ",
" +..OoXXXXXXXXoOOO&X.........$              X;@@@@@@:;XXXXXX    ",
"  #.OOOoXXXXXoOOOoXX....sa%%%%%%%i@@@@3p    XXXXXXXXXXXXXXXX    ",
"   #OOOOXXXXoOOOoXXX....a%%%%%%%i@@@@@@3    XXXXXXXXXXXXXXXX    ",
"    OOOOXXXXoOOoXXX*....%%%%%%er@@@@@@@@#  #XXXXXXXXXXXXXXXX    ",
"    OOOoXXXXXooXXX*@....%%%%er@@@@@@@@@@.##.XXXXXXXXXXXXXXXX    ",
"    O5@@@@@@@@@@@@@@....%i@@@@@@@@@@@@@@....XXXXXX&=OOOOOOOO    ",
"    5@@@@@@@@@@@@@@@....i@@@@@@@@@@@@@@@....XXXX&=OOOOOOOOOO    ",
"    @@@@@@@@@@@@@@@@....@@@@@@@@@@@@@@@@....XXXoOOOOOOOOOOOO    ",
"    @@@@@@@@@@@@@@@@....@@@@@@@@@@@@@@@@....XXoOOOOOOOOOOOOO    "
};
