/* XPM */
static char *diamond1709443920[] = {
/* columns rows colors chars-per-pixel */
"64 64 14 1 ",
"  c None",
". c #14695C",
"X c #308A7D",
"o c #1AAC97",
"O c #29A699",
"+ c #3BAC9D",
"@ c #35BAAD",
"# c #1AD8BF",
"$ c #46CCB8",
"% c #4BD6C3",
"& c #A8FAF0",
"* c #B2FEF4",
"= c #C0FCF4",
"- c #E0FFFB",
/* pixels */
"                                                                ",
"                                                                ",
"                                                                ",
"                                                                ",
"                                                                ",
"                                                                ",
"                                                                ",
"                                                                ",
"                                                                ",
"                                                                ",
"                                                                ",
"                                                                ",
"                                                                ",
"                                                                ",
"                                                                ",
"                                                                ",
"                                                                ",
"                                                                ",
"                            ........                            ",
"                            ........                            ",
"                          ..------==..                          ",
"                          ..------==..                          ",
"                        ..--%%%%&&==++..                        ",
"                        ..--%%%%&&==++..                        ",
"                      ..--%%&&&&==&&%%++..                      ",
"                      ..--%%&&&&==&&%%++..                      ",
"                      ..--%%--**--**%%%%..                      ",
"                      ..--%%--**--**%%%%..                      ",
"                    ..--%%--%%%%&&&&@@$$oo..                    ",
"                    ..--%%--%%%%&&&&@@$$oo..                    ",
"                    ..--%%**%%&&&&&&XX$$oo..                    ",
"                    ..--%%**%%&&&&&&XX$$oo..                    ",
"                    ..----@@&&&&&&&&XXoooo..                    ",
"                    ..----@@&&&&&&&&XXoooo..                    ",
"                    ..**%%%%XXXXXXXXOOOOXX..                    ",
"                    ..**%%%%XXXXXXXXOOOOXX..                    ",
"                      ..%%XXOOOOOOOOXXOO..                      ",
"                      ..%%XXOOOOOOOOXXOO..                      ",
"                      ..##XXOOOOOOOOXX&&..                      ",
"                      ..##XXOOOOOOOOXX&&..                      ",
"                        ..OO####&&&&OO..                        ",
"                        ..OO####&&&&OO..                        ",
"                          ............                          ",
"                          ............                          ",
"                                                                ",
"                                                                ",
"                                                                ",
"                                                                ",
"                                                                ",
"                                                                ",
"                                                                ",
"                                                                ",
"                                                                ",
"                                                                ",
"                                                                ",
"                                                                ",
"                                                                ",
"                                                                ",
"                                                                ",
"                                                                ",
"                                                                ",
"                                                                ",
"                                                                ",
"                                                                "
};
