/* XPM */
static char *result[] = {
/* columns rows colors chars-per-pixel */
"64 64 14 1 ",
"  c #14695C",
". c #2F8A7D",
"X c #1AAD97",
"o c #28A699",
"O c #36BAAD",
"+ c #45CCB8",
"@ c #1AD8C0",
"# c #4BD6C3",
"$ c #A8FAF0",
"% c #B2FEF4",
"& c #C0FCF4",
"* c #E0FFFB",
"= c white",
"- c None",
/* pixels */
"----------------------------------------------------------------",
"----------------------------------------------------------------",
"----------------------------------------------------------------",
"----------------------------------------------------------------",
"----------------------------------------------------------------",
"----------------------------------------------------------------",
"----------------------------------------------------------------",
"----------------------------------------------------------------",
"----------------------------------------------------------------",
"----------------------------------------------------------------",
"----------------------------------------------------------------",
"----------------------------------------------------------------",
"----------------------------------------------------------------",
"----------------------------------------------------------------",
"----------------------------------------------------------------",
"----------------------------------------------------------------",
"---------------------------          ---------------------------",
"---------------------------          ---------------------------",
"------------------------   *******&&&  -------------------------",
"------------------------   *******&&&  -------------------------",
"------------------------   *******&&&  -------------------------",
"----------------------  ***#####$$&&&==   ----------------------",
"----------------------  ***#####$$&&&==   ----------------------",
"-------------------   **###$$$$$&&========  --------------------",
"-------------------   **###$$$$$&&========  --------------------",
"-------------------   **###$$$$$&&========  --------------------",
"-------------------   **###**%%%=======###  --------------------",
"-------------------   **###**%%%=======###  --------------------",
"-----------------  ***##***##========OO+++XX   -----------------",
"-----------------  ***##***##========OO+++XX   -----------------",
"-----------------  ***##***##========OO+++XX   -----------------",
"-----------------  ***##%%%##=====$$$..+++XX   -----------------",
"-----------------  ***##%%%##=====$$$..+++XX   -----------------",
"-----------------  *****OOO=======$$$..XXXXX   -----------------",
"-----------------  *****OOO=======$$$..XXXXX   -----------------",
"-----------------  *****OOO=======$$$..XXXXX   -----------------",
"-----------------  %%%##========.....ooooo..   -----------------",
"-----------------  %%%##========.....ooooo..   -----------------",
"-------------------   =======oooooooo..ooo  --------------------",
"-------------------   =======oooooooo..ooo  --------------------",
"-------------------   =======oooooooo..ooo  --------------------",
"-------------------   =====oooooooooo..$$$  --------------------",
"-------------------   =====oooooooooo..$$$  --------------------",
"----------------------  ooo@@@@@$$$$$oo   ----------------------",
"----------------------  ooo@@@@@$$$$$oo   ----------------------",
"----------------------  ooo@@@@@$$$$$oo   ----------------------",
"------------------------               -------------------------",
"------------------------               -------------------------",
"----------------------------------------------------------------",
"----------------------------------------------------------------",
"----------------------------------------------------------------",
"----------------------------------------------------------------",
"----------------------------------------------------------------",
"----------------------------------------------------------------",
"----------------------------------------------------------------",
"----------------------------------------------------------------",
"----------------------------------------------------------------",
"----------------------------------------------------------------",
"----------------------------------------------------------------",
"----------------------------------------------------------------",
"----------------------------------------------------------------",
"----------------------------------------------------------------",
"----------------------------------------------------------------",
"----------------------------------------------------------------"
};
