/* XPM */
static char *result[] = {
/* columns rows colors chars-per-pixel */
"64 64 14 1 ",
"  c #14695C",
". c #308A7D",
"X c #29A699",
"o c #3BAC9D",
"O c #35BAAD",
"+ c #1BD8BF",
"@ c #46CCB8",
"# c #4BD6C3",
"$ c #A8FAF0",
"% c #B2FEF4",
"& c #C0FCF4",
"* c #E0FFFB",
"= c white",
"- c None",
/* pixels */
"----------------------------------------------------------------",
"----------------------------------------------------------------",
"----------------------------------------------------------------",
"----------------------------------------------------------------",
"----------------------------------------------------------------",
"----------------------------------------------------------------",
"----------------------------------------------------------------",
"----------------------------------------------------------------",
"----------------------------------------------------------------",
"----------------------------------------------------------------",
"----------------------------------------------------------------",
"----------------------------------------------------------------",
"----------------------------------------------------------------",
"----------------------------------------------------------------",
"----------------------------------------------------------------",
"----------------------------------------------------------------",
"---------------------------          ---------------------------",
"---------------------------          ---------------------------",
"------------------------   *******&&&  -------------------------",
"------------------------   *******&&&  -------------------------",
"------------------------   *******&&&  -------------------------",
"----------------------  ***#####$$&&&oo   ----------------------",
"----------------------  ***#####$$&&&oo   ----------------------",
"-------------------   **###$$$$$&&$$$##ooo  --------------------",
"-------------------   **###$$$$$&&$$$##ooo  --------------------",
"-------------------   **###$$$$$&&$$$##ooo  --------------------",
"-------------------   **###**%%%**%%%#####  --------------------",
"-------------------   **###**%%%**%%%#####  --------------------",
"-----------------  ***##***#####$$$$$OO@@@==   -----------------",
"-----------------  ***##***#####$$$$$OO@@@==   -----------------",
"-----------------  ***##***#####$$$$$OO@@@==   -----------------",
"-----------------  ***##%%%##$$$$$$$$..=====   -----------------",
"-----------------  ***##%%%##$$$$$$$$..=====   -----------------",
"-----------------  *****OOO$$$$$$$$$$=======   -----------------",
"-----------------  *****OOO$$$$$$$$$$=======   -----------------",
"-----------------  *****OOO$$$$$$$$$$=======   -----------------",
"-----------------  %%%#####.......========..   -----------------",
"-----------------  %%%#####.......========..   -----------------",
"-------------------   ##...XXXXX=======XXX  --------------------",
"-------------------   ##...XXXXX=======XXX  --------------------",
"-------------------   ##...XXXXX=======XXX  --------------------",
"-------------------   ++...XX========..$$$  --------------------",
"-------------------   ++...XX========..$$$  --------------------",
"----------------------  XXX=====$$$$$XX   ----------------------",
"----------------------  XXX=====$$$$$XX   ----------------------",
"----------------------  XXX=====$$$$$XX   ----------------------",
"------------------------               -------------------------",
"------------------------               -------------------------",
"----------------------------------------------------------------",
"----------------------------------------------------------------",
"----------------------------------------------------------------",
"----------------------------------------------------------------",
"----------------------------------------------------------------",
"----------------------------------------------------------------",
"----------------------------------------------------------------",
"----------------------------------------------------------------",
"----------------------------------------------------------------",
"----------------------------------------------------------------",
"----------------------------------------------------------------",
"----------------------------------------------------------------",
"----------------------------------------------------------------",
"----------------------------------------------------------------",
"----------------------------------------------------------------",
"----------------------------------------------------------------"
};
