/* XPM */
static char *iron_door1709441318[] = {
/* columns rows colors chars-per-pixel */
"64 64 97 2 ",
"   c None",
".  c gray18",
"X  c #434343",
"o  c gray31",
"O  c #505050",
"+  c #575656",
"@  c #5A5A5A",
"#  c #5D5D5D",
"$  c #605F5F",
"%  c #626262",
"&  c gray39",
"*  c #646464",
"=  c #686868",
"-  c DimGray",
";  c #6A6A6A",
":  c gray42",
">  c gray48",
",  c #7B7B7B",
"<  c #818181",
"1  c #908F8F",
"2  c gray57",
"3  c #939393",
"4  c #989898",
"5  c #9A9A9A",
"6  c gray63",
"7  c #A2A2A2",
"8  c gray64",
"9  c #A4A4A4",
"0  c #A5A5A5",
"q  c gray65",
"w  c #A7A7A7",
"e  c #A9A8A8",
"r  c #AAA9A9",
"t  c #AAAAAA",
"y  c gray67",
"u  c #ACACAC",
"i  c #B1B1B1",
"p  c #B4B4B4",
"a  c gray71",
"s  c #B6B6B6",
"d  c #B7B6B6",
"f  c #B7B7B7",
"g  c #B9B8B8",
"h  c #B9B9B9",
"j  c gray73",
"k  c #BBBBBB",
"l  c #BCBBBB",
"z  c #BEBCBC",
"x  c gray",
"c  c #C0C0C0",
"v  c #C1C0C0",
"b  c gray76",
"n  c #C3C2C2",
"m  c #C3C3C3",
"M  c #C4C3C3",
"N  c #C5C3C3",
"B  c #C5C4C4",
"V  c #C7C5C5",
"C  c #C6C6C6",
"Z  c #C8C5C5",
"A  c #C8C6C6",
"S  c #C9C7C7",
"D  c #CAC8C8",
"F  c #CACACA",
"G  c #CBCBCB",
"H  c #CDCACA",
"J  c #CECBCB",
"K  c #CECCCC",
"L  c #CECDCD",
"P  c #CFCDCD",
"I  c #CECECE",
"U  c #CFCECE",
"Y  c #D0CFCF",
"T  c #D0D0D0",
"R  c #D1D0D0",
"E  c gray82",
"W  c #D2D1D1",
"Q  c #D2D2D2",
"!  c LightGray",
"~  c gray83",
"^  c #D5D5D5",
"/  c #D6D5D5",
"(  c gray84",
")  c #D7D7D7",
"_  c #D8D6D6",
"`  c #D8D7D7",
"'  c #D8D8D8",
"]  c #DADADA",
"[  c #DBDADA",
"{  c gainsboro",
"}  c gray87",
"|  c #DFDFDF",
" . c gray88",
".. c #E1E1E1",
"X. c #E2E2E2",
"o. c gray89",
"O. c #E6E6E6",
/* pixels */
"                                [ [ ! ! Y ^ { [ [ [ [ [ [ [ ! ! { [ [ [ [ [ [ [ ! ^ { { [ ` H H                                 ",
"                                { ^ ! ! ! ! ! ` [ [ [ [ [ [ Y Y [ [ [ [ [ [ ` ! ! ! ! ` ^ H H H                                 ",
"                                ! ! Y H H H H H H H H H H H H H H H H H H H H H H H H H H H w y                                 ",
"                                ! Y H H H H H H H H H H H H H H H H H H H H H H H H H H H H 6 6                                 ",
"                                [ [ H H w 6 y i i i i i f N H H q 6 t i i i i i d N H H H H 6 6                                 ",
"                                [ [ H H 6 y i i i i i i i i ! G q q i i i i i i i i Y H H H 6 6                                 ",
"                                [ [ H H y i                 ^ H i i                 ^ H H H 6 6                                 ",
"                                [ { H H i i                 X.! i i                 X.Y H H 6 6                                 ",
"                                * = H H i i                 O.X.i i                 O.X.H H 6 6                                 ",
"                                o o H H i i                 O.} i i                 O.X.H H 6 6                                 ",
"                                < < H H i i                 [ ! i i                 [ ! H H 6 6                                 ",
"                                1 4 H H h i                 ! ! i i                 E ! H H 6 6                                 ",
"                                ! ! H H z f ^ } O.O.O.O.[ ! ! ! f i ^ X.O.O.O.O.[ ! ! ! D H 6 6                                 ",
"                                ^ ! H H z z G ! ^ X.X.^ ! ! Y G z h G ! ^ X.X.^ ! ! ! ! H H 6 6                                 ",
"                                { ! H F q q i i i i i i i d H H q 6 i i i i i i u f H H H H 6 6                                 ",
"                                { ^ H F 6 q i i i i i i i i Y Y q q i i i i i i i i G Y H H 6 6                                 ",
"                                [ ` H H t i                 ^ G i i                 ^ G H H 6 6                                 ",
"                                [ ! H H i i                 } ! i i                 X.E H H 6 6                                 ",
"                                ^ ! H H i i                 O.X.i i                 O.X.H H 6 6                                 ",
"                                ^ ! H H i i                 O.X.i i                 O. .H H 6 6                                 ",
"                                [ ~ H H i i                 [ E i i                 [ ! H H 6 6                                 ",
"                                [ [ H H f i                 E ! i i                 ! ! H H 6 6                                 ",
"                                [ [ H H z f ^ X.O.O.O.O.[ ! ~ ! h f ^ X.O.O.O.O.' ! ! ! H H 6 6                                 ",
"                                [ [ G G z z ! ! ^ X.} ^ ! ! G m z z ! ! ^ X.} ^ ! E ! E H H 6 6                                 ",
"                                [ [ H H G ! ! ! ! ! Y H b z x z F ! ! ! ! ! Y H b z z C H H 6 6                                 ",
"                                [ [ H H ! ! ! ! ! G Z v z z x C ! ! ! ! E G C b z z x F H H 6 6                                 ",
"                                { ^ H H w 6 y i i i i i i i Z G h 6 y i i i i i i p C H H H 6 6                                 ",
"                                { ! H H 6 y i i i i i i i h H ! t t i i i i i i i i C H H H 6 6                                 ",
"                                ^ ! H H t i Z H H H H H H H G ! y i Z H H H + X = < < 2 H H 6 6                                 ",
"                                ! ! H H i i H H H H H H H H ! Y i i H H H H X X , < < 3 H H 6 6                                 ",
"                                % = H H i i H H H H H H l f ! ! i i H H H H X X = 5 z z H H 6 6                                 ",
"                                o o H H i i H H H H H N i h ! ! i i H H H H $ , 6 u x Z H H 6 6                                 ",
"                                . . H H i i H H G G m x x x } X.i i H H H H l i i i ^  .H H 6 6                                 ",
"                                O # H H f f H Z Y G x z F  .O. .i f H Z H H d i b [ O.^ H H 6 6                                 ",
"                                ! ! H H z z ! ! o.O.O.O.O.O.[ ! d b ! ! o.O.O.O.O.O.[ ! H H 6 6                                 ",
"                                ! ! H G z F Y ! { O.O.O.O. .G m z F ! ! X.O.O.O.O.[ ! G H H 6 6                                 ",
"                                ! G H H Y ! Y ! H H H H b z z x C H H H H H z x z x Y H H H 6 6                                 ",
"                                ! H H H ! ! ! Y H H Z v z v z C H H H H Z b x x z Z H H H H 6 6                                 ",
"                                [ { H H w 6 y i i i i i i i C H t 6 u i i i i i i i G H H H 6 6                                 ",
"                                [ { H H 6 y i i i i i i i d H F 6 q i i i i i i i h ! ! H H 6 6                                 ",
"                                [ [ H H t i Z H H H H H H H H E i i Z H H H H H H G ! ! H H 6 6                                 ",
"                                [ [ H H i i H H H H H H H G ! ! i i H H H H H H H G ! ! H H 6 6                                 ",
"                                [ [ H H i i H H H H H H C x O.X.i i H H H H H H C z } ` H H 6 6                                 ",
"                                [ [ H H i i H H H H H C z z O.O.i i H H H H H C z z O.O.G G 6 6                                 ",
"                                { { H H i i H H G Y N z z G O.O.i i H H H H b z z G O.O.F H 6 6                                 ",
"                                [ { H H d f H H G G v z G X.O. .i f H Z H H b z G o.O. .H C 6 6                                 ",
"                                [ ` H H x z ! ! o.O.O.O.O.O.[ ! f b ! ! X.O.O.O.O.O.] ! C z 6 6                                 ",
"                                [ ! H G x F ! G ] O.O.O.O. .G m z F ! ! } O.O.O.O. .G m z z 6 6                                 ",
"                                ^ Y H H Y ! ! ! ! ! ! H b z x x Z H ! ! ! ! ! G b x x z z z q q                                 ",
"                                ^ G H H ! ! ! ! Y G C v z z x C H G ! ! ! Y Z z z x x z x z q q                                 ",
"                                [ [ H H q 6 t i i i i i i i C F C z f i u i i i i i F G G F 6 q                                 ",
"                                [ [ H H 6 t i i i i i i i d H E z f i i i i i i i h ! ! H H 6 6                                 ",
"                                @ % H H y i Z H H H H H H H E E f i f C H H H H G F ! ! H H q q                                 ",
"                                X X H H i i H H H H H H H Y ! ~ i i C H H H H H H ! Y ! H H q 6                                 ",
"                                . . H H i i H H H H H H N z o.o.i i H H H H H H C x } ^ H H 6 6                                 ",
"                                O # H H i i H H H H H N z z O.O.i i H H H H H C z z O.O.H H 6 6                                 ",
"                                ! ! H H i i H H G G m x z G O.O.i i H H H H m z z G O.O.G H 6 6                                 ",
"                                ! ! H H d i H H Y G x x G X.O. .i p H H H H b x G X.O. .G Z 6 q                                 ",
"                                ! Y H G z x ! ! o.O.O.O.O.O.[ E h z ! ! X.O.O.O.O.O.[ ! C f 6 q                                 ",
"                                ! G H m z x G ^ ^ X.O.O.O. .~ S z z G ^ ^ X.O.O.} ^ ! C z t q q                                 ",
"                                ^ ! b x x z H Y ! Y ! ! ! H b x z z H G ! ! ! ! ! H b z u 6 q q                                 ",
"                                ! b z z x z Z H Y ! ! H H C z z z v F H G ^ ! G H Z f t 6 q q q                                 ",
"                                i i t q q q q q q q q q q q q q w q q q q q q q q q q q q q q q                                 ",
"                                i i q 6 q q q q q q q q q q q q q q q q q q q q q q q q q q q q                                 "
};
