/* XPM */
static char *result[] = {
/* columns rows colors chars-per-pixel */
"64 64 175 2 ",
"   c gray9",
".  c #181818",
"X  c #1B1B1B",
"o  c #1E1E1E",
"O  c gray12",
"+  c #232323",
"@  c #252525",
"#  c gray15",
"$  c #272727",
"%  c gray17",
"&  c gray18",
"*  c gray19",
"=  c #323232",
"-  c gray21",
";  c gray22",
":  c gray23",
">  c gray24",
",  c #3F3F3F",
"<  c gray25",
"1  c gray27",
"2  c #484848",
"3  c #494949",
"4  c gray29",
"5  c #4C4C4C",
"6  c gray30",
"7  c #4E4E4E",
"8  c #4F4E4F",
"9  c gray31",
"0  c #505050",
"q  c #515151",
"w  c gray32",
"e  c #535353",
"r  c gray33",
"t  c #555455",
"y  c #555555",
"u  c #565656",
"i  c #575657",
"p  c gray34",
"a  c #585858",
"s  c gray35",
"d  c #5A5A5A",
"f  c #5B5A5A",
"g  c #5B5B5B",
"h  c #5C5A5B",
"j  c #5D5B5C",
"k  c gray36",
"l  c #5D5D5D",
"z  c #5E5C5D",
"x  c #5E5D5E",
"c  c #5F5D5E",
"v  c gray37",
"b  c #5F5F5F",
"n  c #605E5F",
"m  c #615F60",
"M  c #606060",
"N  c gray38",
"B  c #626061",
"V  c #626161",
"C  c #626162",
"Z  c #626262",
"A  c gray39",
"S  c #646263",
"D  c #646364",
"F  c #656364",
"G  c #646464",
"H  c #656464",
"J  c #656465",
"K  c #656565",
"L  c #666465",
"P  c #666565",
"I  c #676566",
"U  c gray40",
"Y  c #676666",
"T  c #676667",
"R  c #676767",
"E  c #686667",
"W  c #686768",
"Q  c #696768",
"!  c #686868",
"~  c #696868",
"^  c DimGray",
"/  c #6A6869",
"(  c #6A6969",
")  c #6A6A6A",
"_  c gray42",
"`  c #6C6B6C",
"'  c #6C6C6C",
"]  c #6D6C6D",
"[  c #6D6D6D",
"{  c #6E6D6D",
"}  c gray43",
"|  c #6F6F6F",
" . c #716F70",
".. c gray44",
"X. c #717171",
"o. c #727272",
"O. c #737273",
"+. c gray45",
"@. c #747474",
"#. c gray46",
"$. c #767676",
"%. c #777777",
"&. c gray47",
"*. c #797979",
"=. c gray48",
"-. c #7B7B7B",
";. c #7C7C7C",
":. c gray49",
">. c #7E7E7E",
",. c gray50",
"<. c #808080",
"1. c #818181",
"2. c gray51",
"3. c #838383",
"4. c #848484",
"5. c gray52",
"6. c #868686",
"7. c gray53",
"8. c #888888",
"9. c #898989",
"0. c gray54",
"q. c #8B8B8B",
"w. c gray55",
"e. c #8D8D8D",
"r. c #8E8E8E",
"t. c gray56",
"y. c #909090",
"u. c gray57",
"i. c #929292",
"p. c #939393",
"a. c gray58",
"s. c #959595",
"d. c gray59",
"f. c #979797",
"g. c #989898",
"h. c gray60",
"j. c #9A9A9A",
"k. c #9F9F9F",
"l. c #A0A0A0",
"z. c gray63",
"x. c #A2A2A2",
"c. c gray64",
"v. c #A9A9A9",
"b. c gray68",
"n. c #AFAFAF",
"m. c gray70",
"M. c #B4B4B4",
"N. c #BCBCBC",
"B. c gray74",
"V. c gray",
"C. c gray75",
"Z. c #C0C0C0",
"A. c gray76",
"S. c #C3C3C3",
"D. c #C5C5C5",
"F. c #C6C6C6",
"G. c #CACACA",
"H. c gray80",
"J. c #CDCDCD",
"K. c #CECECE",
"L. c #D0D0D0",
"P. c gray82",
"I. c #D2D2D2",
"U. c gray83",
"Y. c #D5D5D5",
"T. c gray84",
"R. c #D7D7D7",
"E. c #DADADA",
"W. c gray86",
"Q. c gainsboro",
"!. c #DDDDDD",
"~. c gray88",
"^. c #E4E4E4",
"/. c #E7E7E7",
"(. c None",
/* pixels */
"(.(.(.(.(.(.(.(.(.(.(.(.(.(.(.(.(.(.(.(.(.(.(.(.(.(.(.(.(.(.(.(.(.(.(.(.(.(.(.c.e.D.(.(.(.(.(.(.(.(.(.(.(.(.(.(.(.(.(.(.(.(.(.(.",
"(.(.(.(.(.(.(.(.(.(.(.(.(.(.(.(.(.(.(.(.(.(.(.(.(.(.(.(.(.(.(.(.(.(.(.(.^.x.$.X.X.@.3.F.(.(.(.(.(.(.(.(.(.(.(.(.(.(.(.(.(.(.(.(.",
"(.(.(.(.(.(.(.(.(.(.(.(.(.(.(.(.(.(.(.(.(.(.(.(.(.(.(.(.(.(.(.(.(.(.(.b.&.&.<.:.:.2.#.K (.(.(.(.(.(.(.(.(.(.(.(.(.(.(.(.(.(.(.(.",
"(.(.(.(.(.(.(.(.(.(.(.(.(.(.(.(.(.(.(.(.(.(.(.(.(.(.(.(.(.(.(.(.(.C.6.$.4.e.i.s.0.%.[ l (.(.(.(.(.(.(.(.(.(.(.(.(.(.(.(.(.(.(.(.",
"(.(.(.(.(.(.(.(.(.(.(.(.(.(.(.(.(.(.(.(.(.(.(.(.(.(.(.(.(.(.(.C.>.&.4.q.y.h.i.$.[ ` G 6 (.(.(.(.(.(.(.(.(.(.(.(.(.(.(.(.(.(.(.(.",
"(.(.(.(.(.(.(.(.(.(.(.(.(.(.(.(.(.(.(.(.(.(.(.(.(.(.(.(.(.V.6.$.,.7.e.t.8.%.] / Q I Z 6 (.(.(.(.(.(.(.(.(.(.(.(.(.(.(.(.(.(.(.(.",
"(.(.(.(.(.(.(.(.(.(.(.(.(.(.(.(.(.(.(.(.(.(.(.(.(.(.(.Q.h.@.-.2.6.4.3.;...' W I I L Z 6 (.(.(.(.(.(.(.(.(.(.(.(.(.(.(.(.(.(.(.(.",
"(.(.(.(.(.(.(.(.(.(.(.(.(.(.(.(.(.(.(.(.(.(.(.(.(.R.d.o.>.q.u.d.t.=.[ _ ^ K A c B L Z 6 (.(.(.(.(.(.(.(.(.(.(.(.(.(.(.(.(.(.(.(.",
"(.(.(.(.(.(.(.(.(.(.(.(.(.(.(.(.(.(.(.(.(.(.(.L.g.@.>.0.w.d.g.2...^ ! U G l s ( | R Z 6 (.(.(.(.(.(.(.(.(.(.(.(.(.(.(.(.(.(.(.(.",
"(.(.(.(.(.(.(.(.(.(.(.(.(.(.(.(.(.(.(.(.(.(.c.%.%.7.w.r.r.5.$.[ ^ U K M g v g.T.q.R Z 6 (.(.(.(.(.(.(.(.(.(.(.(.(.(.(.(.(.(.(.(.",
"(.(.(.(.(.(.(.(.(.(.(.(.(.(.(.(.(.(.(.(.m.#.:.0.e.e.q.<.+.' ) U K A e Z g./.(.(.a._ Z 6 (.(.(.(.(.(.(.(.(.(.(.(.(.(.(.(.(.(.(.(.",
"(.(.(.(.(.(.(.(.(.(.(.(.(.(.(.(.(.(.(.(.j.4.0.f.g.3.X.) ^ R U b b A w E.(.(.(.(.i.^ Z 6 (.(.(.(.(.(.(.(.(.(.(.(.(.(.(.(.(.(.(.(.",
"(.(.(.(.(.(.(.(.(.(.(.(.(.(.(.(.(.(.(.(.g.3.5.u.<.' ! R K Z l p ' U u (.(.(.(.(.t.U Z 6 (.(.(.(.(.(.(.(.(.(.(.(.(.(.(.(.(.(.(.(.",
"(.(.(.(.(.(.(.(.(.(.(.(.(.(.(.(.(.(.(.(.p.2.5.7.X.! K Z l g :.J.L.R p (.(.(.(.!.4.U Z 6 (.(.(.(.(.(.(.(.(.(.(.(.(.(.(.(.(.(.(.(.",
"(.(.(.(.(.(.(.(.(.(.(.(.(.(.(.(.(.(.(.(.1.=.2.5.} U l w *.G.(.(.U.| u (.(.(.v.o.^ U Z 6 (.(.(.(.(.(.(.(.(.(.(.(.(.(.(.(.(.(.(.(.",
"(.(.(.(.(.(.(.(.(.(.(.(.(.(.(.(.(.(.(.(.2.&.3.6.X.! g $.(.(.(.(.U.' u (.D.8.o.A G K Z 6 (.(.(.(.(.(.(.(.(.(.(.(.(.(.(.(.(.(.(.(.",
"(.(.(.(.(.(.(.(.(.(.(.(.(.(.(.(.(.(.(.(.9.;.3.9.o.! v 6.(.(.(.(.P.U g %.} R k A ^ R Z 6 (.(.(.(.(.(.(.(.(.(.(.(.(.(.(.(.(.(.(.(.",
"(.(.(.(.(.(.(.(.(.(.(.(.(.(.(.(.(.(.(.(.9.-.6.0.+.^ M 6.(.(.(.(.n.R v M d N k.W.e.! Z 6 (.(.(.(.(.(.(.(.(.(.(.(.(.(.(.(.(.(.(.(.",
"(.(.(.(.(.(.(.(.(.(.(.(.(.(.(.(.(.(.(.(.9.-.=.@.Z g M 5.(.(.~.h.| G y a <.P.(.(.i.' Z 6 (.(.(.(.(.(.(.(.(.(.(.(.(.(.(.(.(.(.(.(.",
"(.(.(.(.(.(.(.(.(.(.(.(.(.(.(.(.(.(.(.(.9.-...* $ q M 4.E.h.@.^ N A w H.(.(.(.(.p.^ Z 6 (.(.(.(.(.(.(.(.(.(.(.(.(.(.(.(.(.(.(.(.",
"(.(.(.(.(.(.(.(.(.(.(.(.(.(.(.(.(.(.(.(.e.:.$.3 : p M K } _ N s ..U u (.(.(.(.(.r.R Z 6 (.(.(.(.(.(.(.(.(.(.(.(.(.(.(.(.(.(.(.(.",
"(.(.(.(.(.(.(.(.(.(.(.(.(.(.(.(.(.(.(.(.r.,.=.y 1 v Z b b a K Z.K.U p (.(.(.(.(.8.R Z 6 (.(.(.(.(.(.(.(.(.(.(.(.(.(.(.(.(.(.(.(.",
"(.(.(.(.(.(.(.(.(.(.(.(.(.(.(.(.(.(.(.(.2.=.2.3.[ R v e [ m.(.(.Y.| u (.(.(.B.#.R U Z 6 (.(.(.(.(.(.(.(.(.(.(.(.(.(.(.(.(.(.(.(.",
"(.(.(.(.(.(.(.(.(.(.(.(.(.(.(.(.(.(.(.(.4.*.4.6...! l *.(.(.(.(.U.' u (.B.5...G b G Z 6 (.(.(.(.(.(.(.(.(.(.(.(.(.(.(.(.(.(.(.(.",
"(.(.(.(.(.(.(.(.(.(.(.(.(.(.(.(.(.(.(.(.8.=.4.9.o.! b 5.(.(.(.(.I.R d *.' ..U v N G Z 6 (.(.(.(.(.(.(.(.(.(.(.(.(.(.(.(.(.(.(.(.",
"(.(.(.(.(.(.(.(.(.(.(.(.(.(.(.(.(.(.(.(.9.-.5.9.o.! M 6.(.(.(.(.N.U b ! ) R N g Z A N 6 (.(.(.(.(.(.(.(.(.(.(.(.(.(.(.(.(.(.(.(.",
"(.(.(.(.(.(.(.(.(.(.(.(.(.(.(.(.(.(.(.(.9.-.4.8...R M 6.(.(.E.u.' U ! ! K k s 0 4 u N 7 (.(.(.(.(.(.(.(.(.(.(.(.(.(.(.(.(.(.(.(.",
"(.(.(.(.(.(.(.(.(.(.(.(.(.(.(.(.(.(.(.(.0.-.2.3.} U M 6.(.z.o.' A b G v s r - , < u l 7 (.(.(.(.(.(.(.(.(.(.(.(.(.(.(.(.(.(.(.(.",
"(.(.(.(.(.(.(.(.(.(.(.(.(.(.(.(.(.(.(.(.q.;.4.7.X.R M ! ..X.' Z l M 0 d M 7 + 4 d v v 7 (.(.(.(.(.(.(.(.(.(.(.(.(.(.(.(.(.(.(.(.",
"(.(.(.(.(.(.(.(.(.(.(.(.(.(.(.(.(.(.(.(.y.,.4.9.o.! Z Z ^ ^ G k k G u A G 6 @ e Z ! Z 6 (.(.(.(.(.(.(.(.(.(.(.(.(.(.(.(.(.(.(.(.",
"(.(.(.(.(.(.(.(.(.(.(.(.(.(.(.(.(.(.(.(.h.1.5.9.o.! K U ^ A s p b U a Z b 3 = s [ ) Z 6 (.(.(.(.(.(.(.(.(.(.(.(.(.(.(.(.(.(.(.(.",
"(.(.(.(.(.(.(.(.(.(.(.(.(.(.(.(.(.(.(.(.p.2.4.9.o.! G M g s l G U R s v N M a N ) U Z 6 (.(.(.(.(.(.(.(.(.(.(.(.(.(.(.(.(.(.(.(.",
"(.(.(.(.(.(.(.(.(.(.(.(.(.(.(.(.(.(.(.(.1.&.3.9.o.^ g e k A K Z Z R s A K R [ +.) R Z 6 (.(.(.(.(.(.(.(.(.(.(.(.(.(.(.(.(.(.(.(.",
"(.(.(.(.(.(.(.(.(.(.(.(.(.(.(.(.(.(.(.(.6.*.4.9.o.! l g K G b v N [ s G ' @.| Z K K Z 6 (.(.(.(.(.(.(.(.(.(.(.(.(.(.(.(.(.(.(.(.",
"(.(.(.(.(.(.(.(.(.(.(.(.(.(.(.(.(.(.(.(.8.=.3.8...R b g N b v v G } k ! [ ! v v U U Z 6 (.(.(.(.(.(.(.(.(.(.(.(.(.(.(.(.(.(.(.(.",
"(.(.(.(.(.(.(.(.(.(.(.(.(.(.(.(.(.(.(.(.8.&.,.5.} G v s M Z M Z ) ! b R U N g d K ! Z 6 (.(.(.(.(.(.(.(.(.(.(.(.(.(.(.(.(.(.(.(.",
"(.(.(.(.(.(.(.(.(.(.(.(.(.(.(.(.(.(.(.(.8.$.) 9 > 5 k g K K _ X.X.A U G l a s N ^ ! Z 6 (.(.(.(.(.(.(.(.(.(.(.(.(.(.(.(.(.(.(.(.",
"(.(.(.(.(.(.(.(.(.(.(.(.(.(.(.(.(.(.(.(.9.=._ & @ 5 v k R ..@.) M b d s s v A U ' ) Z 6 (.(.(.(.(.(.(.(.(.(.(.(.(.(.(.(.(.(.(.(.",
"(.(.(.(.(.(.(.(.(.(.(.(.(.(.(.(.(.(.(.(.r.>.! o . 3 N N ) ' R N v Z q l A K G M } _ Z 6 (.(.(.(.(.(.(.(.(.(.(.(.(.(.(.(.(.(.(.(.",
"(.(.(.(.(.(.(.(.(.(.(.(.(.(.(.(.(.(.(.(.p.>.:.2 - N A Z ^ K M s g K p F L L D b | _ N 5 (.(.(.(.(.(.(.(.(.(.(.(.(.(.(.(.(.(.(.(.",
"(.(.(.(.(.(.(.(.(.(.(.(.(.(.(.(.(.(.(.(.j.2.2.4.| R U ! G g s g A U s H L S C v ' R k 6 (.(.(.(.(.(.(.(.(.(.(.(.(.(.(.(.(.(.(.(.",
"(.(.(.(.(.(.(.(.(.(.(.(.(.(.(.(.(.(.(.(.9.>.2.4.[ R A a a g Z U ! [ s H L S C ' _ Z k 9 (.(.(.(.(.(.(.(.(.(.(.(.(.(.(.(.(.(.(.(.",
"(.(.(.(.(.(.(.(.(.(.(.(.(.(.(.(.(.(.(.(.1.%.2.6.| Y f t V K K N G ..s J T { +...K M k 9 (.(.(.(.(.(.(.(.(.(.(.(.(.(.(.(.(.(.(.(.",
"(.(.(.(.(.(.(.(.(.(.(.(.(.(.(.(.(.(.(.(.7.=.3.8.X.R z h L K K N G X.g U } o.' N b M M 6 (.(.(.(.(.(.(.(.(.(.(.(.(.(.(.(.(.(.(.(.",
"(.(.(.(.(.(.(.(.(.(.(.(.(.(.(.(.(.(.(.(.9.-.4.9.o.! m j I K Z M G [ v ^ _ ^ G k K U Z 7 (.(.(.(.(.(.(.(.(.(.(.(.(.(.(.(.(.(.(.(.",
"(.(.(.(.(.(.(.(.(.(.(.(.(.(.(.(.(.(.(.(.9.-.5.9.o.! m j P K A ! } R Z ! R M s g U R Z 7 (.(.(.(.(.(.(.(.(.(.(.(.(.(.(.(.(.(.(.(.",
"(.(.(.(.(.(.(.(.(.(.(.(.(.(.(.(.(.(.(.(.9.-.5.9.o.! M k K ! | o._ Z G A k a k G ! ! Z 6 (.(.(.(.(.(.(.(.(.(.(.(.(.(.(.(.(.(.(.(.",
"(.(.(.(.(.(.(.(.(.(.(.(.(.(.(.(.(.(.(.(.q.-.4.9.o.! M v ! X...K b N M d g Z K G [ ) Z 6 (.(.(.(.(.(.(.(.(.(.(.(.(.(.(.(.(.(.(.(.",
"(.(.(.(.(.(.(.(.(.(.(.(.(.(.(.(.(.(.(.(.t.:.4.9.o.! Z N ) ) U b l A g A K K K b } _ Z 6 (.(.(.(.(.(.(.(.(.(.(.(.(.(.(.(.(.(.(.(.",
"(.(.(.(.(.(.(.(.(.(.(.(.(.(.(.(.(.(.(.(.d.<.4.9.o.! G K ^ R v s k K s J H H D b [ _ b 7 (.(.(.(.(.(.(.(.(.(.(.(.(.(.(.(.(.(.(.(.",
"(.(.(.(.(.(.(.(.(.(.(.(.(.(.(.(.(.(.(.(.h.3.3.8...R R U b d d b K R s H L S x N ' G k 9 (.(.(.(.(.(.(.(.(.(.(.(.(.(.(.(.(.(.(.(.",
"(.(.(.(.(.(.(.(.(.(.(.(.(.(.(.(.(.(.(.(.2.=.2.4.} U v w d M G A K ..s H I E ~ X.' l q 9 (.(.(.(.(.(.(.(.(.(.(.(.(.(.(.(.(.(.(.(.",
"(.(.(.(.(.(.(.(.(.(.(.(.(.(.(.(.(.(.(.(.3.*.4.7...! k i G K K N G ..s J /  .O.[ A u 0 7 (.(.(.(.(.(.(.(.(.(.(.(.(.(.(.(.(.(.(.(.",
"(.(.(.(.(.(.(.(.(.(.(.(.(.(.(.(.(.(.(.(.8.=.1.7.X.N c j I K K M G | g R [ X._ K l r e :.(.(.(.(.(.(.(.(.(.(.(.(.(.(.(.(.(.(.(.(.",
"(.(.(.(.(.(.(.(.(.(.(.(.(.(.(.(.(.(.(.(.8.-.[ ; % 8 n j I K N b U ) b ! ! ^ N y y 1.T.(.(.(.(.(.(.(.(.(.(.(.(.(.(.(.(.(.(.(.(.(.",
"(.(.(.(.(.(.(.(.(.(.(.(.(.(.(.(.(.(.(.(.9.-.[ # O 6 m j I K G ' | U b K G d e %.M.(.(.(.(.(.(.(.(.(.(.(.(.(.(.(.(.(.(.(.(.(.(.(.",
"(.(.(.(.(.(.(.(.(.(.(.(.(.(.(.(.(.(.(.(.8.-.^ X   2 b k K [ +...^ b k a e X.A.(.(.(.(.(.(.(.(.(.(.(.(.(.(.(.(.(.(.(.(.(.(.(.(.(.",
"(.(.(.(.(.(.(.(.(.(.(.(.(.(.(.(.(.(.(.(.e.;.2.G 7 K N b ! ..' R M u e &.S.(.(.(.(.(.(.(.(.(.(.(.(.(.(.(.(.(.(.(.(.(.(.(.(.(.(.(.",
"(.(.(.(.(.(.(.(.(.(.(.(.(.(.(.(.(.(.(.(.t.>.2.4.[ U Z N ! ) R l e N l.(.(.(.(.(.(.(.(.(.(.(.(.(.(.(.(.(.(.(.(.(.(.(.(.(.(.(.(.(.",
"(.(.(.(.(.(.(.(.(.(.(.(.(.(.(.(.(.(.(.(.t.;.1.3.' U N M K v y k x.(.(.(.(.(.(.(.(.(.(.(.(.(.(.(.(.(.(.(.(.(.(.(.(.(.(.(.(.(.(.(.",
"(.(.(.(.(.(.(.(.(.(.(.(.(.(.(.(.(.(.(.(.9.$.;.6...Z k d r Z k.(.(.(.(.(.(.(.(.(.(.(.(.(.(.(.(.(.(.(.(.(.(.(.(.(.(.(.(.(.(.(.(.(.",
"(.(.(.(.(.(.(.(.(.(.(.(.(.(.(.(.(.(.(.(.3._ %.9.o.l w y 9.(.(.(.(.(.(.(.(.(.(.(.(.(.(.(.(.(.(.(.(.(.(.(.(.(.(.(.(.(.(.(.(.(.(.(.",
"(.(.(.(.(.(.(.(.(.(.(.(.(.(.(.(.(.(.(.(.P.8.) %.Z q -.P.(.(.(.(.(.(.(.(.(.(.(.(.(.(.(.(.(.(.(.(.(.(.(.(.(.(.(.(.(.(.(.(.(.(.(.(.",
"(.(.(.(.(.(.(.(.(.(.(.(.(.(.(.(.(.(.(.(.(.(.P.p.9.Y.(.(.(.(.(.(.(.(.(.(.(.(.(.(.(.(.(.(.(.(.(.(.(.(.(.(.(.(.(.(.(.(.(.(.(.(.(.(."
};
