/* XPM */
static char *steve_back1709462553[] = {
/* columns rows colors chars-per-pixel */
"64 64 180 2 ",
"   c None",
".  c #0B0602",
"X  c #0E0903",
"o  c #110B04",
"O  c #190F07",
"+  c #1F1209",
"@  c #27150C",
"#  c #341C11",
"$  c #181336",
"%  c #151B37",
"&  c #1B153C",
"*  c #151B3A",
"=  c #1E183F",
"-  c #291F3A",
";  c #221D3F",
":  c #26253A",
">  c #432516",
",  c #482717",
"<  c #4D2B19",
"1  c #613521",
"2  c #673822",
"3  c #723F27",
"4  c #1D1742",
"5  c #1E1944",
"6  c #1F1849",
"7  c #221B44",
"8  c #221A4C",
"9  c #251C54",
"0  c #271E59",
"q  c #281F5D",
"w  c #281F53",
"e  c #162341",
"r  c #1B224A",
"t  c #103245",
"y  c #1E2D59",
"u  c #153C57",
"i  c #252143",
"p  c #2A2545",
"a  c #2C254B",
"s  c #2F294D",
"d  c #262148",
"f  c #312A4F",
"g  c #36314D",
"h  c #212456",
"j  c #2A2154",
"k  c #2C235C",
"l  c #242259",
"z  c #322B53",
"x  c #31275F",
"c  c #332C5A",
"v  c #383057",
"b  c #2A2062",
"n  c #302760",
"m  c #342C62",
"M  c #382F63",
"N  c #342B6A",
"B  c #383066",
"V  c #453F41",
"C  c #0B434C",
"Z  c #19474D",
"A  c #0E4A59",
"S  c #0C4853",
"D  c #104E5F",
"F  c #13465E",
"G  c #07575A",
"H  c #065C5C",
"J  c #135F53",
"K  c #05655C",
"L  c #0A6459",
"P  c #0A685E",
"I  c #136457",
"U  c #156459",
"Y  c #126A5D",
"T  c #286557",
"R  c #0A5F66",
"E  c #016C64",
"W  c #086E63",
"Q  c #066667",
"!  c #136F62",
"~  c #017066",
"^  c #02746B",
"/  c #09756A",
"(  c #02796F",
")  c #087A6F",
"_  c #137568",
"`  c #197265",
"'  c #017D73",
"]  c #097E73",
"[  c #277566",
"{  c #3B7864",
"}  c #474243",
"|  c #4B4644",
" . c #4E4947",
".. c #4E4848",
"X. c #514B47",
"o. c #534D4C",
"O. c #57514E",
"+. c #59534E",
"@. c #554F51",
"#. c #5D4A53",
"$. c #565152",
"%. c #5A5552",
"&. c #5F5854",
"*. c #614C5B",
"=. c #635C56",
"-. c #635D5A",
";. c #735952",
":. c #536359",
">. c #4C775F",
",. c #5D755B",
"<. c #6B635B",
"1. c #6D6F5B",
"2. c #70675F",
"3. c #63775A",
"4. c #63785B",
"5. c #457962",
"6. c #4B7860",
"7. c #4D7560",
"8. c #5E7D62",
"9. c #6B6662",
"0. c #746A62",
"q. c #796F64",
"w. c #627E62",
"e. c #687E62",
"r. c #7D756D",
"t. c #9C7450",
"y. c #A4754F",
"u. c #A77851",
"i. c #AE7E55",
"p. c #B97E53",
"a. c #B77E53",
"s. c #80776F",
"d. c #028176",
"f. c #01857A",
"g. c #01897E",
"h. c #088075",
"j. c #34846F",
"k. c #658164",
"l. c #678669",
"z. c #648A6D",
"x. c #689374",
"c. c #AE8157",
"v. c #AF8258",
"b. c #BC8255",
"n. c #B48559",
"m. c #BF8759",
"M. c #BB8B5C",
"N. c #B78E60",
"B. c #BE8F60",
"V. c #C38B5B",
"C. c #C08759",
"Z. c #C6905F",
"A. c #C69262",
"S. c #CA9463",
"D. c #CD9867",
"F. c #C69868",
"G. c #CD9A6A",
"H. c #C99668",
"J. c #D19D6C",
"K. c #D39F70",
"L. c #D3A06F",
"P. c #CFA179",
"I. c #D5A273",
"U. c #D7A67A",
"Y. c #D8A87D",
"T. c #018D82",
"R. c #029186",
"E. c #01958A",
"W. c #01998D",
"Q. c #0C9186",
"!. c #029D91",
"~. c #0D9C91",
"^. c #03A195",
"/. c #04A699",
"(. c #07A99C",
"). c #09AB9E",
"_. c #11A89B",
"`. c #0CAEA0",
"'. c #16AFA2",
"]. c #19B3A5",
/* pixels */
"                                                  . . . . . . . . . . . . . .                                                   ",
"                                                  o . . X . . . . . . . . . .                                                   ",
"                                                  X . X X X X X . . . . . . .                                                   ",
"                                                  X o o X X X . . X . . . . .                                                   ",
"                                                  o o o X . X . . X X . . . .                                                   ",
"                                                  . o o o o X X X X X . X X X                                                   ",
"                                                  X o o o o X X X X . . X o X                                                   ",
"                                                  o X X o X X X X X o o o o X                                                   ",
"                                                  X X X X X X X X X o o o o o                                                   ",
"                                                  X X X X X X X X X X o o X X                                                   ",
"                                                  X . X X X X X X X X X X X X                                                   ",
"                                                  X X X X X X X X X X X X X X                                                   ",
"                                                  X . . X X X X X X o X X X X                                                   ",
"                                                  < > # O X X X X X . . @ > >                                                   ",
"                                                  3 2 , + X X X X . . o # 1 1                                                   ",
"                                                    [ ` L P P P K K K L U T                                                     ",
"                                ~.'.].].].'._.Q.] f.Q.E.E.W.W.^.!.W.W.R.T.d.) ^ ] ~._.].].].].                                  ",
"                                !.).'.).(.).).E.d.f.E.W.W.^././././.^.!.R.f.' ^ f.W.^.'.`.(.(.                                  ",
"                                ^.).`.)./.).`.~.f.f.R.E.W.^.^./.(./.^.!.E.f.' ' f.!./.).).(.(.                                  ",
"                                W.!.^.^.^./.(.R.d.f.g.E.^.^././.(.(./.^.E.T.f.' f.W.W.^.^.^.^.                                  ",
"                                R.E.W.!.W.^.^.R.d.f.R.W.^./././.(.)./.!.W.T.f.' d.T.R.W.W.W.!.                                  ",
"                                d.g.g.g.R.W.W.T.d.g.E.W./././.^./.^.!.W.R.T.f.^ ' ' f.g.T.T.R.                                  ",
"                                / ' ' f.f.R.W.R.f.g.W.^././././.!.!.W.T.T.T.f.( ^ ( ^ ] d.g.g.                                  ",
"                                ,.w.k.k.w.z.x.j./ d.E.W.W.^./.^.!.!.R.T.T.T.f.' [ ,.,.w.k.8.w.                                  ",
"                                y.i.c.u.y.n.M.,.! ( g.E.E.W.^.^.!.W.T.f.g.T.f.) { t.u.i.c.y.u.                                  ",
"                                p.m.V.b.p.C.V.4.Y ~ f.g.R.E.!.^.!.W.T.f.f.f.' ^ 5.i.p.V.C.p.b.                                  ",
"                                C.V.Z.V.C.V.V.3.I K ' g.g.R.!.!.!.R.T.d.f.' ( / 5.n.C.Z.Z.C.C.                                  ",
"                                V.Z.S.A.S.A.Z.4.I E ' f.g.R.W.!.!.!.T.f.' ^ ~ W 5.M.Z.S.S.A.A.                                  ",
"                                A.S.S.D.D.S.S.4.Y ~ d.f.f.g.W.!./.^.T.f.' E E W 5.B.A.S.S.D.D.                                  ",
"                                D.J.J.J.J.J.D.k.! ~ d.f.g.g.W.^.^.!.R.g.' E E P 6.F.D.J.K.J.J.                                  ",
"                                L.I.U.I.J.J.J.l._ ( f.g.g.g.W.W.!.W.E.T.d.~ E L 6.G.J.U.I.I.J.                                  ",
"                                J.J.J.K.J.J.J.l._ ( ( d.d.g.E.W.W.W.E.R.f.( ~ L 6.F.J.J.K.J.J.                                  ",
"                                J.D.S.J.J.J.J.l._ ~ ^ ' ' T.T.T.W.W.E.E.T.d.^ L 6.F.G.S.D.K.J.                                  ",
"                                J.S.S.J.J.J.J.k.! E ~ ~ ( ' ' T.T.T.R.T.f.' ~ L 6.F.G.D.D.J.J.                                  ",
"                                J.D.S.J.J.J.J.e.U K K E E ^ ( ' ' d.f.f.' E K L 7.G.J.S.S.J.J.                                  ",
"                                J.D.D.J.J.L.K.1.Z t C S S G E ( ' ' d.' Q A S Z :.G.J.D.J.J.J.                                  ",
"                                J.J.D.J.I.I.I.;.: * * * * t H ^ ( ' ( ~ A 6 5 r #.H.G.G.J.I.I.                                  ",
"                                I.J.J.I.I.I.I.;.: $ $ $ $ e C H Q ^ R D u 8 6 d #.G.K.J.J.I.I.                                  ",
"                                Y.I.I.I.Y.U.K.;.: $ & 4 4 4 * t G R u l r 9 6 d *.I.U.I.I.Y.Y.                                  ",
"                                                s 5 6 6 6 5 & 5 u F y 0 0 9 9 d                                                 ",
"                                                M 0 0 0 0 9 4 5 r l 0 0 0 9 9 8                                                 ",
"                                                M 0 0 0 9 9 8 6 9 0 0 q 0 0 8 d                                                 ",
"                                                M 0 q b 9 9 9 9 9 0 q q q 0 w k                                                 ",
"                                                M 0 b 0 0 9 9 9 9 0 q b l 9 9 k                                                 ",
"                                                B b b b 0 9 9 9 0 0 b b 0 0 0 k                                                 ",
"                                                M 0 q 0 0 0 0 0 0 0 0 b 0 0 0 n                                                 ",
"                                                c 9 9 9 q b b b 9 9 9 9 0 b b N                                                 ",
"                                                c 8 8 9 0 0 j 0 9 6 6 6 9 0 0 n                                                 ",
"                                                s & & 4 4 4 4 = 4 & & & 4 5 4 d                                                 ",
"                                                s & & & 4 4 = & & & & & & 4 4 i                                                 ",
"                                                p $ & & & & $ $ $ $ $ & & & & ;                                                 ",
"                                                a $ & & & 4 & $ & & & & & 4 4 7                                                 ",
"                                                z 5 6 6 9 9 8 8 4 4 5 7 8 9 8 j                                                 ",
"                                                z 6 6 6 8 9 9 9 8 5 6 8 8 9 9 j                                                 ",
"                                                c 9 9 0 9 0 l 0 8 8 9 0 9 9 0 x                                                 ",
"                                                c 8 9 9 9 9 9 9 8 8 9 9 9 w 0 x                                                 ",
"                                                a 7 8 w j j 0 8 5 4 7 8 w w w c                                                 ",
"                                                g p a f z z f a i 7 a f z v f v                                                 ",
"                                                o.X.%.=.%.@.X...V } O.=.&.@.o.@.                                                ",
"                                                @.o.=.=.=.&.o.X.} | =.=.=.=.%.@.                                                ",
"                                                %.+.2.q.2.=.+.X.| o.<.q.0.<.=.%.                                                ",
"                                                %.&.2.0.2.=.O.X. .X.<.q.0.<.=.O.                                                ",
"                                                O.+.2.2.9.-.X.} | X.-.0.0.<.&.X.                                                ",
"                                                9.<.r.s.r.0.-.%.&.=.0.s.r.r.9.-.                                                "
};
