/* XPM */
static char *steve_right1709462553[] = {
/* columns rows colors chars-per-pixel */
"64 64 123 2 ",
"   c None",
".  c #0B0602",
"X  c #0E0903",
"o  c #110B05",
"O  c #150F08",
"+  c #1B120A",
"@  c #201816",
"#  c #241B18",
"$  c #2B1F1C",
"%  c #2E221E",
"&  c #110D26",
"*  c #120E2A",
"=  c #1F1727",
"-  c #15102E",
";  c #1A152D",
":  c #161131",
">  c #181335",
",  c #241E27",
"<  c #21192A",
"1  c #231B32",
"2  c #231F3C",
"3  c #292327",
"4  c #262128",
"5  c #2B2529",
"6  c #2D2829",
"7  c #312B2B",
"8  c #35302E",
"9  c #24203E",
"0  c #29253D",
"q  c #31293F",
"w  c #373232",
"e  c #393432",
"r  c #3E3936",
"t  c #442C1A",
"y  c #4B2E1B",
"u  c #59331E",
"i  c #5A3A23",
"p  c #423D3C",
"a  c #643C24",
"s  c #46423F",
"d  c #684026",
"f  c #6E452A",
"g  c #74492D",
"h  c #6C4A32",
"j  c #7C5337",
"k  c #7A5139",
"l  c #252041",
"z  c #074F4A",
"x  c #05544D",
"c  c #04584F",
"v  c #025B52",
"b  c #01645A",
"n  c #01685E",
"m  c #126159",
"M  c #006D63",
"N  c #0F6961",
"B  c #007167",
"V  c #0A7065",
"C  c #00746B",
"Z  c #0B756A",
"A  c #017B71",
"S  c #0C7D72",
"D  c #4C4846",
"F  c #524E4B",
"G  c #57504D",
"H  c #605C5A",
"J  c #5D644B",
"K  c #49765F",
"L  c #61684F",
"P  c #656B53",
"I  c #637055",
"U  c #637458",
"Y  c #457B66",
"T  c #4B7B64",
"R  c #854D2E",
"E  c #894F2F",
"W  c #8C5232",
"Q  c #925634",
"!  c #955A35",
"~  c #985D37",
"^  c #9B5E39",
"/  c #9C603B",
"(  c #A2653E",
")  c #86624D",
"_  c #966646",
"`  c #9B6541",
"'  c #896753",
"]  c #8A6854",
"[  c #91715F",
"{  c #A66A43",
"}  c #AA6C44",
"|  c #A36E49",
" . c #AE744C",
".. c #B0724A",
"X. c #B57A4F",
"o. c #A77650",
"O. c #A87754",
"+. c #AD7D55",
"@. c #B47C52",
"#. c #B97F54",
"$. c #0A8276",
"%. c #01887E",
"&. c #0A8A7F",
"*. c #10847A",
"=. c #45806B",
"-. c #4E846C",
";. c #BC8355",
":. c #BD8559",
">. c #C28B5D",
",. c #C7905F",
"<. c #C79363",
"1. c #CA9463",
"2. c #CE9967",
"3. c #C89468",
"4. c #CE9A69",
"5. c #D19C6B",
"6. c #CF9F73",
"7. c #D09E70",
"8. c #D4A06F",
"9. c #D4A274",
"0. c #018B80",
"q. c #119187",
"w. c #189185",
/* pixels */
"                                              X . . . . . . X X o X X X o o o X X                                               ",
"                                              X . . X o . . . X X X X X o o o X X                                               ",
"                                              X X X o o . . X X X X X X o o o X X                                               ",
"                                              o o o . . X X . . X X X X X X o X o                                               ",
"                                              o o o . . X X . . X X X X X X o o o                                               ",
"                                              . . X X . X X X . X X X X o o o o o                                               ",
"                                              . . . o X X X o X X X X X o O o o o                                               ",
"                                              X X . X X . . X X X X y f g g t + O                                               ",
"                                              X X X X X . . X X X X d / ( { i + O                                               ",
"                                              X X X X X . . X X X X g ( } } W f f                                               ",
"                                              X o X X X . . X X X X g } } } ( / /                                               ",
"                                              X X X . . . . @ # h j ` } } } / Q Q                                               ",
"                                              X X X X . X o $ % _  . ...} ( ^ E E                                               ",
"                                              u u u a a f h k k @.:.;.X.} ( ! W W                                               ",
"                                              R R E ! ~ | { } { :.>.:.;.} / Q W W                                               ",
"                                                        -.Y Y Y -.-.T K                                                         ",
"                                                        w.q.$.$.$.S Z V                                                         ",
"                                                        q.%.A A C C B M                                                         ",
"                                                        q.%.C B M M M M                                                         ",
"                                                        *.A M M n M M M                                                         ",
"                                                        S M n b b b n M                                                         ",
"                                                        N b v v v x b n                                                         ",
"                                                        m c v c x x v n                                                         ",
"                                                        P J J P L P P U                                                         ",
"                                                        O.| o.o.+.+.@.+.                                                        ",
"                                                        #.@.#.#.;.>.>.>.                                                        ",
"                                                        >.;.;.>.>.>.,.,.                                                        ",
"                                                        1.>.,.<.,.,.1.1.                                                        ",
"                                                        7.2.2.2.2.2.1.2.                                                        ",
"                                                        9.5.2.5.5.5.2.1.                                                        ",
"                                                        9.5.5.5.5.8.2.<.                                                        ",
"                                                        9.5.4.5.5.5.2.<.                                                        ",
"                                                        9.8.2.5.5.5.2.<.                                                        ",
"                                                        9.5.5.5.5.5.2.1.                                                        ",
"                                                        9.9.7.9.5.8.5.5.                                                        ",
"                                                        9.8.7.5.5.5.5.2.                                                        ",
"                                                        7.5.5.5.5.5.5.4.                                                        ",
"                                                        9.4.4.5.2.2.2.4.                                                        ",
"                                                        7.4.2.4.<.<.1.1.                                                        ",
"                                                        [ ] ' ' ) ) ) )                                                         ",
"                                                        l 0 < < = = = <                                                         ",
"                                                        2 ; & & & & & *                                                         ",
"                                                        2 : * & & & * *                                                         ",
"                                                        2 : * * & & * *                                                         ",
"                                                        2 > : * & & & *                                                         ",
"                                                        2 > : * * & * &                                                         ",
"                                                        2 * : : * & * *                                                         ",
"                                                        2 : * * & & * *                                                         ",
"                                                        2 : * * & * * *                                                         ",
"                                                        2 : * * * * * *                                                         ",
"                                                        l > * * & & & *                                                         ",
"                                                        l > * * * & * *                                                         ",
"                                                        9 - : * * * * *                                                         ",
"                                                        9 : : * * * * *                                                         ",
"                                                        9 : ; : - - - *                                                         ",
"                                                        9 - : - - : * *                                                         ",
"                                                        9 : - - - * - -                                                         ",
"                                                        2 - - * ; - ; ;                                                         ",
"                                                        9 : ; - = = 4 4                                                         ",
"                                                        0 ; ; ; , , 5 5                                                         ",
"                                                        p w 5 3 6 6 7 8                                                         ",
"                                                        s r 7 7 6 7 w e                                                         ",
"                                                        D p r r e e e e                                                         ",
"                                                        H G F F D D D D                                                         "
};
