/* XPM */
static char *zombie_back1709462553[] = {
/* columns rows colors chars-per-pixel */
"64 64 186 2 ",
"   c None",
".  c #293914",
"X  c #3E3E3E",
"o  c #224D0D",
"O  c #254B15",
"+  c #264B18",
"@  c #2B4E1B",
"#  c #274616",
"$  c #2C521D",
"%  c #275114",
"&  c #31531E",
"*  c #2F5520",
"=  c #325423",
"-  c #345925",
";  c #385B27",
":  c #365D29",
">  c #3A5D2B",
",  c #355429",
"<  c #3C5B33",
"1  c #3C632D",
"2  c #3E6431",
"3  c #475C34",
"4  c #42612F",
"5  c #416A2E",
"6  c #426533",
"7  c #446B33",
"8  c #476D39",
"9  c #4B6D3B",
"0  c #4A6638",
"q  c #497336",
"w  c #4B743A",
"e  c #4F793B",
"r  c #477035",
"t  c #527B3E",
"y  c #0B025D",
"u  c #191F51",
"i  c #1E2355",
"p  c #212E45",
"a  c #2B3E50",
"s  c #243152",
"d  c #0D0465",
"f  c #0D036B",
"g  c #110765",
"h  c #10056C",
"j  c #140A6C",
"k  c #120866",
"l  c #0D1463",
"z  c #0D156A",
"x  c #14116B",
"c  c #121A67",
"v  c #150A73",
"b  c #1A0E79",
"n  c #150972",
"m  c #0E1271",
"M  c #151374",
"N  c #1E127C",
"B  c #131975",
"V  c #21157E",
"C  c #15206C",
"Z  c #0C3E74",
"A  c #0D2B6E",
"S  c #0E5F49",
"D  c #1F585F",
"F  c #0F624C",
"G  c #10634E",
"H  c #02625F",
"J  c #146B56",
"K  c #17725E",
"L  c #2C645A",
"P  c #06496D",
"I  c #065374",
"U  c #065C7C",
"Y  c #06567C",
"T  c #064C72",
"R  c #016C6B",
"E  c #026B67",
"W  c #02706E",
"Q  c #187662",
"!  c #1B7663",
"~  c #05657A",
"^  c #017574",
"/  c #017C7C",
"(  c #037976",
")  c #2E7E62",
"_  c #424242",
"`  c #4C4C4C",
"'  c #515151",
"]  c #5D5D5D",
"[  c #486D40",
"{  c #4E7541",
"}  c #4F7849",
"|  c #537443",
" . c #547B44",
".. c #567C48",
"X. c #5A7E4B",
"o. c #587846",
"O. c #58576A",
"+. c #5C5A6E",
"@. c #5E5D70",
"#. c #626262",
"$. c #03817F",
"%. c #228A78",
"&. c #3B967B",
"*. c #348A6E",
"=. c #5A8446",
"-. c #5C824D",
";. c #5C8649",
":. c #5B8555",
">. c #61854E",
",. c #628551",
"<. c #678955",
"1. c #6B8D59",
"2. c #658C5A",
"3. c #6F915D",
"4. c #70925E",
"5. c #5E9468",
"6. c #6B9665",
"7. c #6D9A6A",
"8. c #649465",
"9. c #759564",
"0. c #769865",
"q. c #799A67",
"w. c #709968",
"e. c #7B9C69",
"r. c #7FA16D",
"t. c #80A26E",
"y. c #221681",
"u. c #271B86",
"i. c #281C87",
"p. c #2A1E89",
"a. c #332792",
"s. c #362A95",
"d. c #3A2E99",
"f. c #3E329D",
"g. c #473D97",
"h. c #483F97",
"j. c #483D9E",
"k. c #463D98",
"l. c #4236A1",
"z. c #4539A2",
"x. c #493DA6",
"c. c #4B3FAA",
"v. c #076381",
"b. c #037082",
"n. c #4C439C",
"m. c #50479F",
"M. c #4D42A5",
"N. c #4E42AD",
"B. c #5046A1",
"V. c #554CA4",
"C. c #564DA8",
"Z. c #5A50AB",
"A. c #5145B0",
"S. c #5549B4",
"D. c #584CB5",
"F. c #5A4EB9",
"G. c #5E52BC",
"H. c #6256BE",
"J. c #6357C2",
"K. c #008484",
"L. c #008B8B",
"P. c #19988D",
"I. c #009494",
"U. c #019C9C",
"Y. c #038591",
"T. c #269684",
"R. c #2A9C8A",
"E. c #289986",
"W. c #3F9B80",
"Q. c #359E86",
"!. c #3DA58B",
"~. c #3BA187",
"^. c #01A3A3",
"/. c #0BA5A5",
"(. c #02ABAB",
"). c #0BAAAA",
"_. c #12ACAC",
"`. c #04B2B2",
"'. c #0AB5B5",
"]. c #0EBCBC",
"[. c #13B5B5",
"{. c #15BCBC",
"}. c #19BCBC",
"|. c #16C4C4",
" X c #1BC4C4",
".X c #1DCACA",
/* pixels */
"                                                + $ - - - 1 1 2 6 1 - $ + # .                                                   ",
"                                                $ $ $ 1 r q q w 7 1 - * % + #                                                   ",
"                                                & $ $ 1 q w e r 8 1 : * @ + +                                                   ",
"                                                1 1 5 w t  .{ }  .8 6 1 - * $                                                   ",
"                                                1 1 q t =.e { ....w 7 1 : * *                                                   ",
"                                                1 2 e t ..=...-.-... .w 8 1 1                                                   ",
"                                                $ 2 e t ......-.<.X... .e 5 1                                                   ",
"                                                1 r e t ..-...-.-.-.;.t e 8 1                                                   ",
"                                                1 w e =...-.-.-.-.;.>.=.t 7 1                                                   ",
"                                                1 2 8 w { { } -.:.=.=.t e 5 1                                                   ",
"                                                : 2 2 8 8 { } =.>.;.=.e w 5 :                                                   ",
"                                                - - 1 2 w 8 { w e 9 0 7 5 1 -                                                   ",
"                                                * - - 2 q w 8 r 7 3 3 3 1 1 -                                                   ",
"                                                % % % 1 2 6 6 2 2 1 > - & % %                                                   ",
"                                                o O + - : 1 2 1 2 1 : $ % o o                                                   ",
"                                                  S F J K K K Q Q Q Q J G F                                                     ",
"                                  K.K.K.K.K./ E H E W ^ ^ ( ( $.$./ ( ^ W R E ^ / K.K.K.K./                                     ",
"                                  K.K.L.L.K.K.^ R ^ / $.K.K.K.K.L.L.L.$.( ^ R / K.K.L.L.L.L.                                    ",
"                                  L.L.L.L.L.L./ ^ / b.K.L.L.L.L.L.L.L.$./ ^ ^ / L.L.L.L.L.L.                                    ",
"                                  U.U.U.U.I.I.K.$.L.L.I.I.U.U.U.U.I.U.L.L.b./ L.I.I.I.U.U.U.                                    ",
"                                  ^.^.^.^.^.U.L.K.L.I.U.^.^.^.^.^.^.U.U.I.K.$.L.U.^.^.^.^.^.                                    ",
"                                  ^.(.`.(.^.^.I.I.I.I.U.U.^.(.^.^.^.U.U.U.L.K.U.^.(.(.(.(.(.                                    ",
"                                  `.`.`.`.`.(.U.I.I.^.U.I.^.`.`.(.^.I.U.^.I.L.U.(.`.`.`.`.`.                                    ",
"                                  !.!.!.!.~.Q.P.I.U.^.^.^.'.].].'./.U.^.^.U.I.P.Q.~.!.!.!.!.                                    ",
"                                  7.7.7.7.6.5.T.U.^.^.^./.[.|.{.}.)././.(.^.U.&.8.6.7.w.7.7.                                    ",
"                                  q.r.e.e.9.6.R.U.^.^./._.}.|. X X[._.).(.^.U.&.6.q.q.e.e.0.                                    ",
"                                  r.r.t.e.e.7.R.U.U.U./._. X.X.X X[._.)./.^.U.&.w.e.t.t.t.e.                                    ",
"                                  q.e.e.e.q.7.R.U.^.^._._.}..X.X.X}._./.^.^.^.W.w.q.e.e.e.e.                                    ",
"                                  0.9.0.9.q.7.R.^./.(.)._.}. X.X.X}._./.^.^.U.5.w.q.9.9.9.q.                                    ",
"                                  9.9.9.9.9.6.E.^.^.`.)._.}. X.X.X[._./.U.U.^.R.6.9.q.9.9.9.                                    ",
"                                  9.q.q.q.9.8.T.U.^.`././.[.{.|. X[./.U.U.I.U.&.6.4.q.q.q.9.                                    ",
"                                  9.9.4.9.1.2.T.I.^.(.(.).'.].].].'.).^.U.U.I.&.2.1.9.4.9.4.                                    ",
"                                  1.1.3.1.2.X.T.I.^.^.^.`.`.'.'.'.`.(.^.^.U.I.*.:.1.1.1.1.<.                                    ",
"                                  X.<.X.X.X.X.%.L.L.U.U.^.(.`.(.(.^.^.^.U.I.L.*.X.X.X.,.<.X.                                    ",
"                                  o.X.| | o.} ! ( / K.L.L.^.^.^.I.I.L.I.I.L.K.*...| | o.X.|                                     ",
"                                  9 | [ 3 [ [ D T I I Y ~ Y.^.L.L.K.K.b.v.U I L [ 9 6 9 | 0                                     ",
"                                  4 0 4 > 3 < s m l l c C ~ I.K./ / ^ Z z z m a 3 > > 3 6 3                                     ",
"                                  4 4 ; , ; > i f d g k x Z U ~ ^ ~ I A g f h p < ; , ; 1 ;                                     ",
"                                  = , & @ = , u f f h n M x l P R Z B m f f f p , & @ = ; &                                     ",
"                                                f f n n v k g A T A b v v f d                                                   ",
"                                                y j b b b v n M M M b b b h y                                                   ",
"                                                k v N N N b b b b b N N N j g                                                   ",
"                                                N y.y.y.y.y.y.y.y.y.y.y.y.y.N                                                   ",
"                                                i.p.p.p.p.p.u.u.u.p.p.p.p.i.p.                                                  ",
"                                                a.s.s.d.s.s.a.a.a.a.s.s.d.a.a.                                                  ",
"                                                d.d.f.f.f.d.s.d.d.d.f.f.j.d.d.                                                  ",
"                                                l.z.x.x.c.z.l.l.z.z.x.x.z.l.l.                                                  ",
"                                                z.x.c.M.x.z.l.j.z.x.c.c.x.x.z.                                                  ",
"                                                k.n.n.M.n.n.g.g.g.n.n.m.M.h.h.                                                  ",
"                                                h.n.m.m.n.n.g.g.g.n.m.m.m.n.h.                                                  ",
"                                                n.V.V.V.V.m.n.n.n.m.V.C.V.m.n.                                                  ",
"                                                m.C.Z.Z.Z.V.m.B.m.C.Z.Z.Z.C.B.                                                  ",
"                                                D.H.H.H.H.G.S.D.D.G.H.H.J.F.D.                                                  ",
"                                                D.H.J.J.J.G.F.F.D.H.J.H.J.G.F.                                                  ",
"                                                S.F.G.G.G.D.S.S.S.F.G.G.H.D.S.                                                  ",
"                                                A.D.F.F.F.A.A.A.A.S.F.F.F.S.A.                                                  ",
"                                                c.M.A.A.N.M.x.z.c.c.A.N.A.M.x.                                                  ",
"                                                z.x.M.B.M.x.z.j.j.M.M.M.M.x.x.                                                  ",
"                                                O.+.@.@.@.+.O.O.O.+.+.@.@.+.O.                                                  ",
"                                                ] #.#.#.#.] ] ] ] #.#.#.#.] ]                                                   ",
"                                                ` ` ' ' ' ` ` ` ` ' ' ' ' ' `                                                   ",
"                                                ` ` ` ` ` ` ` ` ` ` ` ` ` ` `                                                   ",
"                                                X _ _ _ X X X X X _ _ _ _ X X                                                   ",
"                                                X X _ _ X X X X X X _ X X X X                                                   "
};
