/* XPM */
static char *zombie_left1709462553[] = {
/* columns rows colors chars-per-pixel */
"64 64 140 2 ",
"   c None",
".  c #050803",
"X  c gray6",
"o  c #131313",
"O  c #1E1E1E",
"+  c #13220D",
"@  c #1A3E09",
"#  c #133115",
"$  c #15321A",
"%  c #04092A",
"&  c #1E1D2A",
"*  c #020035",
"=  c #050932",
"-  c #03003A",
";  c #0A053F",
":  c #05093C",
">  c #201E2C",
",  c #222222",
"<  c #23222E",
"1  c #312F3D",
"2  c #333333",
"3  c #1B4705",
"4  c #1D4907",
"5  c #1E420C",
"6  c #1E4A08",
"7  c #1F4911",
"8  c #224D0D",
"9  c #25510F",
"0  c #254B13",
"q  c #26441A",
"w  c #2A491F",
"e  c #265210",
"r  c #295414",
"t  c #2D5917",
"y  c #275119",
"u  c #2B531B",
"i  c #2E5A1A",
"p  c #325C1E",
"a  c #34601E",
"s  c #2E5321",
"d  c #2E5821",
"f  c #305421",
"g  c #345C25",
"h  c #38542B",
"j  c #365D29",
"k  c #3A5E2C",
"l  c #366324",
"z  c #3A6625",
"x  c #3D6827",
"c  c #376129",
"v  c #3B632B",
"b  c #3D6A29",
"n  c #3E6531",
"m  c #3F6831",
"M  c #40612F",
"N  c #426C2D",
"B  c #44712E",
"V  c #436534",
"C  c #436B34",
"Z  c #486E35",
"A  c #466D39",
"S  c #496E39",
"D  c #467233",
"F  c #4A7534",
"G  c #4C7836",
"H  c #47703A",
"J  c #4C733B",
"K  c #4E7A3A",
"L  c #50743D",
"P  c #527C3C",
"I  c #040143",
"U  c #0B0645",
"Y  c #0B034C",
"T  c #0F084D",
"R  c #17124C",
"E  c #110953",
"W  c #191353",
"Q  c #1E1953",
"!  c #1D165D",
"~  c #20195A",
"^  c #363442",
"/  c #2A255B",
"(  c #1F1760",
")  c #231C64",
"_  c #271F69",
"`  c #292265",
"'  c #2E2962",
"]  c #2B236D",
"[  c #2F286B",
"{  c #30296D",
"}  c #38336D",
"|  c #2F2771",
" . c #332B74",
".. c #372F79",
"X. c #3B3673",
"o. c #3B337C",
"O. c #3F387D",
"+. c #443E7C",
"@. c #004646",
"#. c #004B4B",
"$. c #04524E",
"%. c #1B5E44",
"&. c #015453",
"*. c #005C5C",
"=. c #1F6249",
"-. c #27795B",
";. c #2D7C5B",
":. c #317B5A",
">. c #016565",
",. c #026C6C",
"<. c #017575",
"1. c #007C7C",
"2. c #4D7641",
"3. c #4F7A42",
"4. c #527642",
"5. c #557C44",
"6. c #587847",
"7. c #557C48",
"8. c #5A7D4B",
"9. c #50803B",
"0. c #4F8144",
"q. c #568140",
"w. c #5A8444",
"e. c #5C8846",
"r. c #56874A",
"t. c #5C844B",
"y. c #5E8A48",
"u. c #5D8051",
"i. c #60804F",
"p. c #618D4B",
"a. c #64904E",
"s. c #618451",
"d. c #638A52",
"f. c #679351",
"g. c #3E3680",
"h. c #433B85",
"j. c #473F89",
"k. c #494287",
"l. c #4A438B",
"z. c #4E4690",
/* pixels */
"                                              7 0 u u g j j k n n C D b j g u u                                                 ",
"                                              y y u d j j n n A H C n v c c c z                                                 ",
"                                              u u s d c k n n A H Z n v c z b b                                                 ",
"                                              g j k n m A J 2.5.7.J A n j j j g                                                 ",
"                                              s v v M Z S 2.7.t.8.3.H V k j j g                                                 ",
"                                              . w V V 5.7.t.d.u.t.7.2.S A m n n                                                 ",
"                                              w j V S 7.t.i.d.t.u.7.2.J H H A C                                                 ",
"                                              c v C C J 7.t.s.t.t.5.5.K K K K K                                                 ",
"                                              c v m C L 6.8.8.8.7.7.5.K P 9.9.9.                                                ",
"                                              g g v C J 6.8.8.8.u.5.G G G B b x                                                 ",
"                                              s d v M J 4.6.6.8.s.5.D F F x l g                                                 ",
"                                              + q c j S S V M P 8.P G b l p r 0                                                 ",
"                                              q s g g m Z k h L w.P G z p u q 0                                                 ",
"                                              r r i i N D N v L P G D z p r 8 5                                                 ",
"                                              8 9 t i N D N N G P G D z p r @ @                                                 ",
"                                                        %.%.%.=.=.%.%.                                                          ",
"                                                        $.$.&.&.&.&.$.                                                          ",
"                                                        #.#.#.#.#.&.&.                                                          ",
"                                                        @.@.@.@.@.&.*.                                                          ",
"                                                        *.&.&.&.&.*.>.                                                          ",
"                                                        ,.>.*.*.*.>.,.                                                          ",
"                                                        <.,.>.>.>.<.<.                                                          ",
"                                                        1.<.,.,.,.<.1.                                                          ",
"                                                        ;.;.:.:.:.;.-.                                                          ",
"                                                        q.r.r.r.r.3.2.                                                          ",
"                                                        w.e.p.p.p.w.P                                                           ",
"                                                        p.p.f.f.f.e.5.                                                          ",
"                                                        w.p.f.f.f.y.5.                                                          ",
"                                                        5.p.f.f.f.w.5.                                                          ",
"                                                        5.e.f.p.p.e.w.                                                          ",
"                                                        L w.p.p.p.e.9.                                                          ",
"                                                        D P w.9.5.P P                                                           ",
"                                                        C F P G F F G                                                           ",
"                                                        N B F N C N B                                                           ",
"                                                        z N N N M N a                                                           ",
"                                                        a p z p p p a                                                           ",
"                                                        r t t r r r r                                                           ",
"                                                        8 8 e 8 8 8 8                                                           ",
"                                                        3 4 8 8 4 3 4                                                           ",
"                                                        # # # $ # # #                                                           ",
"                                                        : : : = % = :                                                           ",
"                                                        I I I * * - I                                                           ",
"                                                        Y I - * - I Y                                                           ",
"                                                        E U U U U T E                                                           ",
"                                                        ! W R ! ) ~ (                                                           ",
"                                                        ) ! Q ) _ _ _                                                           ",
"                                                        [ ` / [  .| ]                                                           ",
"                                                         .[ '  ... .|                                                           ",
"                                                        o.X.} O.h.o.o.                                                          ",
"                                                        O.X.X.+.j.h.g.                                                          ",
"                                                        h.+.+.k.l.j.h.                                                          ",
"                                                        h.+.+.l.z.l.h.                                                          ",
"                                                        h.+.+.l.z.j.h.                                                          ",
"                                                        h.h.+.k.z.j.h.                                                          ",
"                                                        O.h.h.k.j.h.g.                                                          ",
"                                                        o.h.h.h.h.g.g.                                                          ",
"                                                         ...o.o.o... .                                                          ",
"                                                        [  .} X...| |                                                           ",
"                                                        1 ^ ^ ' | _ _                                                           ",
"                                                        2 2 2 / ) ) )                                                           ",
"                                                        O , , < < > &                                                           ",
"                                                        O & , , , O O                                                           ",
"                                                        o o o o o o o                                                           ",
"                                                        X o o o o o X                                                           "
};
