/* XPM */
static char *result[] = {
/* columns rows colors chars-per-pixel */
"64 64 15 1 ",
"  c #14695C",
". c #308A7D",
"X c #1AAC97",
"o c #29A699",
"O c #3BAC9D",
"+ c #35BAAD",
"@ c #1AD8BF",
"# c #46CCB8",
"$ c #4BD6C3",
"% c #A8FAF0",
"& c #B2FEF4",
"* c #C0FCF4",
"= c #E0FFFB",
"- c white",
"; c None",
/* pixels */
";;;;;;;;;;;;;;;;;;;;;;;;;;;;;;;;;;;;;;;;;;;;;;;;;;;;;;;;;;;;;;;;",
";;;;;;;;;;;;;;;;;;;;;;;;;;;;;;;;;;;;;;;;;;;;;;;;;;;;;;;;;;;;;;;;",
";;;;;;;;;;;;;;;;;;;;;;;;;;;;;;;;;;;;;;;;;;;;;;;;;;;;;;;;;;;;;;;;",
";;;;;;;;;;;;;;;;;;;;;;;;;;;;;;;;;;;;;;;;;;;;;;;;;;;;;;;;;;;;;;;;",
";;;;;;;;;;;;;;;;;;;;;;;;;;;;;;;;;;;;;;;;;;;;;;;;;;;;;;;;;;;;;;;;",
";;;;;;;;;;;;;;;;;;;;;;;;;;;;;;;;;;;;;;;;;;;;;;;;;;;;;;;;;;;;;;;;",
";;;;;;;;;;;;;;;;;;;;;;;;;;;;;;;;;;;;;;;;;;;;;;;;;;;;;;;;;;;;;;;;",
";;;;;;;;;;;;;;;;;;;;;;;;;;;;;;;;;;;;;;;;;;;;;;;;;;;;;;;;;;;;;;;;",
";;;;;;;;;;;;;;;;;;;;;;;;;;;;;;;;;;;;;;;;;;;;;;;;;;;;;;;;;;;;;;;;",
";;;;;;;;;;;;;;;;;;;;;;;;;;;;;;;;;;;;;;;;;;;;;;;;;;;;;;;;;;;;;;;;",
";;;;;;;;;;;;;;;;;;;;;;;;;;;;;;;;;;;;;;;;;;;;;;;;;;;;;;;;;;;;;;;;",
";;;;;;;;;;;;;;;;;;;;;;;;;;;;;;;;;;;;;;;;;;;;;;;;;;;;;;;;;;;;;;;;",
";;;;;;;;;;;;;;;;;;;;;;;;;;;;;;;;;;;;;;;;;;;;;;;;;;;;;;;;;;;;;;;;",
";;;;;;;;;;;;;;;;;;;;;;;;;;;;;;;;;;;;;;;;;;;;;;;;;;;;;;;;;;;;;;;;",
";;;;;;;;;;;;;;;;;;;;;;;;;;;;;;;;;;;;;;;;;;;;;;;;;;;;;;;;;;;;;;;;",
";;;;;;;;;;;;;;;;;;;;;;;;;;;;;;;;;;;;;;;;;;;;;;;;;;;;;;;;;;;;;;;;",
";;;;;;;;;;;;;;;;;;;;;;;;;;;          ;;;;;;;;;;;;;;;;;;;;;;;;;;;",
";;;;;;;;;;;;;;;;;;;;;;;;;;;          ;;;;;;;;;;;;;;;;;;;;;;;;;;;",
";;;;;;;;;;;;;;;;;;;;;;;;   --=====***  ;;;;;;;;;;;;;;;;;;;;;;;;;",
";;;;;;;;;;;;;;;;;;;;;;;;   --=====***  ;;;;;;;;;;;;;;;;;;;;;;;;;",
";;;;;;;;;;;;;;;;;;;;;;;;   --=====***  ;;;;;;;;;;;;;;;;;;;;;;;;;",
";;;;;;;;;;;;;;;;;;;;;;  ---$$$$$%%***OO   ;;;;;;;;;;;;;;;;;;;;;;",
";;;;;;;;;;;;;;;;;;;;;;  ---$$$$$%%***OO   ;;;;;;;;;;;;;;;;;;;;;;",
";;;;;;;;;;;;;;;;;;;   --$$$%%%%%**%%%$$OOO  ;;;;;;;;;;;;;;;;;;;;",
";;;;;;;;;;;;;;;;;;;   --$$$%%%%%**%%%$$OOO  ;;;;;;;;;;;;;;;;;;;;",
";;;;;;;;;;;;;;;;;;;   --$$$%%%%%**%%%$$OOO  ;;;;;;;;;;;;;;;;;;;;",
";;;;;;;;;;;;;;;;;;;   --$$$==&&&==&&&$$$$$  ;;;;;;;;;;;;;;;;;;;;",
";;;;;;;;;;;;;;;;;;;   --$$$==&&&==&&&$$$$$  ;;;;;;;;;;;;;;;;;;;;",
";;;;;;;;;;;;;;;;;  ---$$===$$$$$%%%%%++###XX   ;;;;;;;;;;;;;;;;;",
";;;;;;;;;;;;;;;;;  ---$$===$$$$$%%%%%++###XX   ;;;;;;;;;;;;;;;;;",
";;;;;;;;;;;;;;;;;  ---$$===$$$$$%%%%%++###XX   ;;;;;;;;;;;;;;;;;",
";;;;;;;;;;;;;;;;;  ===$$&&&$$%%%%%%%%..###XX   ;;;;;;;;;;;;;;;;;",
";;;;;;;;;;;;;;;;;  ===$$&&&$$%%%%%%%%..###XX   ;;;;;;;;;;;;;;;;;",
";;;;;;;;;;;;;;;;;  =====+++%%%%%%%%%%..XXXXX   ;;;;;;;;;;;;;;;;;",
";;;;;;;;;;;;;;;;;  =====+++%%%%%%%%%%..XXXXX   ;;;;;;;;;;;;;;;;;",
";;;;;;;;;;;;;;;;;  =====+++%%%%%%%%%%..XXXXX   ;;;;;;;;;;;;;;;;;",
";;;;;;;;;;;;;;;;;  &&&$$$$$..........ooooo..   ;;;;;;;;;;;;;;;;;",
";;;;;;;;;;;;;;;;;  &&&$$$$$..........ooooo..   ;;;;;;;;;;;;;;;;;",
";;;;;;;;;;;;;;;;;;;   $$...oooooooooo..ooo  ;;;;;;;;;;;;;;;;;;;;",
";;;;;;;;;;;;;;;;;;;   $$...oooooooooo..ooo  ;;;;;;;;;;;;;;;;;;;;",
";;;;;;;;;;;;;;;;;;;   $$...oooooooooo..ooo  ;;;;;;;;;;;;;;;;;;;;",
";;;;;;;;;;;;;;;;;;;   @@...oooooooooo..%%%  ;;;;;;;;;;;;;;;;;;;;",
";;;;;;;;;;;;;;;;;;;   @@...oooooooooo..%%%  ;;;;;;;;;;;;;;;;;;;;",
";;;;;;;;;;;;;;;;;;;;;;  ooo@@@@@%%%%%oo   ;;;;;;;;;;;;;;;;;;;;;;",
";;;;;;;;;;;;;;;;;;;;;;  ooo@@@@@%%%%%oo   ;;;;;;;;;;;;;;;;;;;;;;",
";;;;;;;;;;;;;;;;;;;;;;  ooo@@@@@%%%%%oo   ;;;;;;;;;;;;;;;;;;;;;;",
";;;;;;;;;;;;;;;;;;;;;;;;               ;;;;;;;;;;;;;;;;;;;;;;;;;",
";;;;;;;;;;;;;;;;;;;;;;;;               ;;;;;;;;;;;;;;;;;;;;;;;;;",
";;;;;;;;;;;;;;;;;;;;;;;;;;;;;;;;;;;;;;;;;;;;;;;;;;;;;;;;;;;;;;;;",
";;;;;;;;;;;;;;;;;;;;;;;;;;;;;;;;;;;;;;;;;;;;;;;;;;;;;;;;;;;;;;;;",
";;;;;;;;;;;;;;;;;;;;;;;;;;;;;;;;;;;;;;;;;;;;;;;;;;;;;;;;;;;;;;;;",
";;;;;;;;;;;;;;;;;;;;;;;;;;;;;;;;;;;;;;;;;;;;;;;;;;;;;;;;;;;;;;;;",
";;;;;;;;;;;;;;;;;;;;;;;;;;;;;;;;;;;;;;;;;;;;;;;;;;;;;;;;;;;;;;;;",
";;;;;;;;;;;;;;;;;;;;;;;;;;;;;;;;;;;;;;;;;;;;;;;;;;;;;;;;;;;;;;;;",
";;;;;;;;;;;;;;;;;;;;;;;;;;;;;;;;;;;;;;;;;;;;;;;;;;;;;;;;;;;;;;;;",
";;;;;;;;;;;;;;;;;;;;;;;;;;;;;;;;;;;;;;;;;;;;;;;;;;;;;;;;;;;;;;;;",
";;;;;;;;;;;;;;;;;;;;;;;;;;;;;;;;;;;;;;;;;;;;;;;;;;;;;;;;;;;;;;;;",
";;;;;;;;;;;;;;;;;;;;;;;;;;;;;;;;;;;;;;;;;;;;;;;;;;;;;;;;;;;;;;;;",
";;;;;;;;;;;;;;;;;;;;;;;;;;;;;;;;;;;;;;;;;;;;;;;;;;;;;;;;;;;;;;;;",
";;;;;;;;;;;;;;;;;;;;;;;;;;;;;;;;;;;;;;;;;;;;;;;;;;;;;;;;;;;;;;;;",
";;;;;;;;;;;;;;;;;;;;;;;;;;;;;;;;;;;;;;;;;;;;;;;;;;;;;;;;;;;;;;;;",
";;;;;;;;;;;;;;;;;;;;;;;;;;;;;;;;;;;;;;;;;;;;;;;;;;;;;;;;;;;;;;;;",
";;;;;;;;;;;;;;;;;;;;;;;;;;;;;;;;;;;;;;;;;;;;;;;;;;;;;;;;;;;;;;;;",
";;;;;;;;;;;;;;;;;;;;;;;;;;;;;;;;;;;;;;;;;;;;;;;;;;;;;;;;;;;;;;;;"
};
