/* XPM */
static char *result[] = {
/* columns rows colors chars-per-pixel */
"64 64 15 1 ",
"  c #14695C",
". c #2F8A7D",
"X c #1AAC97",
"o c #29A699",
"O c #3AAD9E",
"+ c #38BBAD",
"@ c #44CCB8",
"# c #22D8C0",
"$ c #4BD6C3",
"% c #A8FAF0",
"& c #B2FEF4",
"* c #C0FCF4",
"= c #E0FFFB",
"- c white",
"; c None",
/* pixels */
";;;;;;;;;;;;;;;;;;;;;;;;;;;;;;;;;;;;;;;;;;;;;;;;;;;;;;;;;;;;;;;;",
";;;;;;;;;;;;;;;;;;;;;;;;;;;;;;;;;;;;;;;;;;;;;;;;;;;;;;;;;;;;;;;;",
";;;;;;;;;;;;;;;;;;;;;;;;;;;;;;;;;;;;;;;;;;;;;;;;;;;;;;;;;;;;;;;;",
";;;;;;;;;;;;;;;;;;;;;;;;;;;;;;;;;;;;;;;;;;;;;;;;;;;;;;;;;;;;;;;;",
";;;;;;;;;;;;;;;;;;;;;;;;;;;;;;;;;;;;;;;;;;;;;;;;;;;;;;;;;;;;;;;;",
";;;;;;;;;;;;;;;;;;;;;;;;;;;;;;;;;;;;;;;;;;;;;;;;;;;;;;;;;;;;;;;;",
";;;;;;;;;;;;;;;;;;;;;;;;;;;;;;;;;;;;;;;;;;;;;;;;;;;;;;;;;;;;;;;;",
";;;;;;;;;;;;;;;;;;;;;;;;;;;;;;;;;;;;;;;;;;;;;;;;;;;;;;;;;;;;;;;;",
";;;;;;;;;;;;;;;;;;;;;;;;;;;;;;;;;;;;;;;;;;;;;;;;;;;;;;;;;;;;;;;;",
";;;;;;;;;;;;;;;;;;;;;;;;;;;;;;;;;;;;;;;;;;;;;;;;;;;;;;;;;;;;;;;;",
";;;;;;;;;;;;;;;;;;;;;;;;;;;;;;;;;;;;;;;;;;;;;;;;;;;;;;;;;;;;;;;;",
";;;;;;;;;;;;;;;;;;;;;;;;;;;;;;;;;;;;;;;;;;;;;;;;;;;;;;;;;;;;;;;;",
";;;;;;;;;;;;;;;;;;;;;;;;;;;;;;;;;;;;;;;;;;;;;;;;;;;;;;;;;;;;;;;;",
";;;;;;;;;;;;;;;;;;;;;;;;;;;;;;;;;;;;;;;;;;;;;;;;;;;;;;;;;;;;;;;;",
";;;;;;;;;;;;;;;;;;;;;;;;;;;;;;;;;;;;;;;;;;;;;;;;;;;;;;;;;;;;;;;;",
";;;;;;;;;;;;;;;;;;;;;;;;;;;;;;;;;;;;;;;;;;;;;;;;;;;;;;;;;;;;;;;;",
";;;;;;;;;;;;;;;;;;;;;;;;;;;          ;;;;;;;;;;;;;;;;;;;;;;;;;;;",
";;;;;;;;;;;;;;;;;;;;;;;;;;;          ;;;;;;;;;;;;;;;;;;;;;;;;;;;",
";;;;;;;;;;;;;;;;;;;;;;;;   =======***  ;;;;;;;;;;;;;;;;;;;;;;;;;",
";;;;;;;;;;;;;;;;;;;;;;;;   =======***  ;;;;;;;;;;;;;;;;;;;;;;;;;",
";;;;;;;;;;;;;;;;;;;;;;;;   =======***  ;;;;;;;;;;;;;;;;;;;;;;;;;",
";;;;;;;;;;;;;;;;;;;;;;  ===$$$$$%%***OO   ;;;;;;;;;;;;;;;;;;;;;;",
";;;;;;;;;;;;;;;;;;;;;;  ===$$$$$%%***OO   ;;;;;;;;;;;;;;;;;;;;;;",
";;;;;;;;;;;;;;;;;;;   ==$$$%%%%%**%%%$$---  ;;;;;;;;;;;;;;;;;;;;",
";;;;;;;;;;;;;;;;;;;   ==$$$%%%%%**%%%$$---  ;;;;;;;;;;;;;;;;;;;;",
";;;;;;;;;;;;;;;;;;;   ==$$$%%%%%**%%%$$---  ;;;;;;;;;;;;;;;;;;;;",
";;;;;;;;;;;;;;;;;;;   ==$$$==&&&==&&&-----  ;;;;;;;;;;;;;;;;;;;;",
";;;;;;;;;;;;;;;;;;;   ==$$$==&&&==&&&-----  ;;;;;;;;;;;;;;;;;;;;",
";;;;;;;;;;;;;;;;;  ===$$===$$$$$%%----------   ;;;;;;;;;;;;;;;;;",
";;;;;;;;;;;;;;;;;  ===$$===$$$$$%%----------   ;;;;;;;;;;;;;;;;;",
";;;;;;;;;;;;;;;;;  ===$$===$$$$$%%----------   ;;;;;;;;;;;;;;;;;",
";;;;;;;;;;;;;;;;;  ===$$&&&$$%%%-------@@@XX   ;;;;;;;;;;;;;;;;;",
";;;;;;;;;;;;;;;;;  ===$$&&&$$%%%-------@@@XX   ;;;;;;;;;;;;;;;;;",
";;;;;;;;;;;;;;;;;  =====+++%%--------..XXXXX   ;;;;;;;;;;;;;;;;;",
";;;;;;;;;;;;;;;;;  =====+++%%--------..XXXXX   ;;;;;;;;;;;;;;;;;",
";;;;;;;;;;;;;;;;;  =====+++%%--------..XXXXX   ;;;;;;;;;;;;;;;;;",
";;;;;;;;;;;;;;;;;  &&&$$$$$-------...ooooo..   ;;;;;;;;;;;;;;;;;",
";;;;;;;;;;;;;;;;;  &&&$$$$$-------...ooooo..   ;;;;;;;;;;;;;;;;;",
";;;;;;;;;;;;;;;;;;;   $$--------ooooo..ooo  ;;;;;;;;;;;;;;;;;;;;",
";;;;;;;;;;;;;;;;;;;   $$--------ooooo..ooo  ;;;;;;;;;;;;;;;;;;;;",
";;;;;;;;;;;;;;;;;;;   $$--------ooooo..ooo  ;;;;;;;;;;;;;;;;;;;;",
";;;;;;;;;;;;;;;;;;;   -------oooooooo..%%%  ;;;;;;;;;;;;;;;;;;;;",
";;;;;;;;;;;;;;;;;;;   -------oooooooo..%%%  ;;;;;;;;;;;;;;;;;;;;",
";;;;;;;;;;;;;;;;;;;;;;  -----###%%%%%oo   ;;;;;;;;;;;;;;;;;;;;;;",
";;;;;;;;;;;;;;;;;;;;;;  -----###%%%%%oo   ;;;;;;;;;;;;;;;;;;;;;;",
";;;;;;;;;;;;;;;;;;;;;;  -----###%%%%%oo   ;;;;;;;;;;;;;;;;;;;;;;",
";;;;;;;;;;;;;;;;;;;;;;;;               ;;;;;;;;;;;;;;;;;;;;;;;;;",
";;;;;;;;;;;;;;;;;;;;;;;;               ;;;;;;;;;;;;;;;;;;;;;;;;;",
";;;;;;;;;;;;;;;;;;;;;;;;;;;;;;;;;;;;;;;;;;;;;;;;;;;;;;;;;;;;;;;;",
";;;;;;;;;;;;;;;;;;;;;;;;;;;;;;;;;;;;;;;;;;;;;;;;;;;;;;;;;;;;;;;;",
";;;;;;;;;;;;;;;;;;;;;;;;;;;;;;;;;;;;;;;;;;;;;;;;;;;;;;;;;;;;;;;;",
";;;;;;;;;;;;;;;;;;;;;;;;;;;;;;;;;;;;;;;;;;;;;;;;;;;;;;;;;;;;;;;;",
";;;;;;;;;;;;;;;;;;;;;;;;;;;;;;;;;;;;;;;;;;;;;;;;;;;;;;;;;;;;;;;;",
";;;;;;;;;;;;;;;;;;;;;;;;;;;;;;;;;;;;;;;;;;;;;;;;;;;;;;;;;;;;;;;;",
";;;;;;;;;;;;;;;;;;;;;;;;;;;;;;;;;;;;;;;;;;;;;;;;;;;;;;;;;;;;;;;;",
";;;;;;;;;;;;;;;;;;;;;;;;;;;;;;;;;;;;;;;;;;;;;;;;;;;;;;;;;;;;;;;;",
";;;;;;;;;;;;;;;;;;;;;;;;;;;;;;;;;;;;;;;;;;;;;;;;;;;;;;;;;;;;;;;;",
";;;;;;;;;;;;;;;;;;;;;;;;;;;;;;;;;;;;;;;;;;;;;;;;;;;;;;;;;;;;;;;;",
";;;;;;;;;;;;;;;;;;;;;;;;;;;;;;;;;;;;;;;;;;;;;;;;;;;;;;;;;;;;;;;;",
";;;;;;;;;;;;;;;;;;;;;;;;;;;;;;;;;;;;;;;;;;;;;;;;;;;;;;;;;;;;;;;;",
";;;;;;;;;;;;;;;;;;;;;;;;;;;;;;;;;;;;;;;;;;;;;;;;;;;;;;;;;;;;;;;;",
";;;;;;;;;;;;;;;;;;;;;;;;;;;;;;;;;;;;;;;;;;;;;;;;;;;;;;;;;;;;;;;;",
";;;;;;;;;;;;;;;;;;;;;;;;;;;;;;;;;;;;;;;;;;;;;;;;;;;;;;;;;;;;;;;;",
";;;;;;;;;;;;;;;;;;;;;;;;;;;;;;;;;;;;;;;;;;;;;;;;;;;;;;;;;;;;;;;;"
};
