/* XPM */
static char *c8364f3c9686466ee862bc5561f2d7c9igCZeib1SMOZdwZO[] = {
/* columns rows colors chars-per-pixel */
"64 64 62 1 ",
"  c #06030B",
". c #030106",
"X c #271E3D",
"o c #0B0713",
"O c #100C1C",
"+ c #08050F",
"@ c #0D0917",
"# c #08060E",
"$ c #3B2754",
"% c #000001",
"& c #151024",
"* c #040208",
"= c #1B152C",
"- c #211934",
"; c #161024",
": c #0C0915",
"> c #040307",
", c #010003",
"< c #130F1F",
"1 c #312248",
"2 c #36244E",
"3 c #2C2042",
"4 c #1A122A",
"5 c #1E1730",
"6 c #291F3F",
"7 c #251938",
"8 c #1D162E",
"9 c #090710",
"0 c #0E0917",
"q c #0E0915",
"w c #140F22",
"e c #2C1D3F",
"r c #302046",
"t c #0F0A19",
"y c #0C0916",
"u c #020105",
"i c #1D132A",
"p c #241936",
"a c #050309",
"s c #160F21",
"d c #07040D",
"f c #181228",
"g c #231733",
"h c #2A1E3F",
"j c #19132A",
"k c #2D1E41",
"l c #2E2145",
"z c #06040C",
"x c #171126",
"c c #130C1D",
"v c #151023",
"b c #05020A",
"n c #0A0612",
"m c #2B1F41",
"M c #090610",
"N c #0A0611",
"B c #020005",
"V c #120C1D",
"C c #050209",
"Z c #0A0712",
"A c #090611",
"S c #161025",
/* pixels */
"     *%%%%%%%%%%%%%%   +OOOO     .%%%%qpXXX;          05X13XXXX;",
"     ,%%%%%%%%%%%%%%   @OOOO    .%%%qe$$XXXX        05XX1$2XXXXX",
"    *%%%%%%%%%%%%%%%  +OOOOo   .%%%i$$$1XXXX       ;XXX1$$$6XXXX",
"    ,%%%%%%%%%%%%%%%  @OOOo   .%%%i$$$1XXXX;      ;XXX1$$$1XXXX;",
"   *%%%%%%,* a%%%%%%*oOOOo   *%%%i$$$7OOOo       0XXX1$$$7OOOo  ",
"   ,%%%%%.  oO:>%%%%uOOOo    ,%%i$$$7OOOo        5XX1$$$7OOOo   ",
"  *%%%%%,  oOOOO#%%%%:Oo    *%%<$$$1OOOO        tXXX$$23OOOo    ",
"  ,%%%%%* oOOOOOO#%%%>o     ,%<X$$1XOOOO        O=XXl3XXOOo     ",
" .%%%%%%  ck$$1X89%%%%%%     0XXXXXXOOOOOOo %%* @O=XXXXXO:%,    ",
".%%%%%%%ck$$$$$1XX89%%%%     5XXXXXXOOOOOOOo%%, +OO=XXXXO>%*    ",
"%%%%%%%i$$$$$$23XXXX<%%%    0XXXXX-&OOOOOOO#%%%* @OO=XXX:%,    .",
"%%%%%%i$$$$$23XXXXXXX<%%    xXXX-&OOOOOOOO#%%%%, +OOO=X=>%*   .%",
"%%%%%q$$$$23XX-&&-XXXX;     OOOOOo  OOOOO#%%%%%%  oOOOOO%.   .%%",
"%%%%%e$$23XX-&OOOO&-XXX;    OOOOo   OOOO#%%%%%%%   oOOOO.   .%%%",
"%%%%q$$1XXX=OOOOOOOO&-XX    oO@+    oO:>%%%%%%%%    +@Oo   .%%%%",
"%%%%e$1XXX=OOOOOOOOOOO&w     d       a%%%%%%%%%%      d   .%%%%%",
"%%%%$1XXX=OOOOOOOOOO%%%%%%%%%%%%%%%%%%%%%%%%%.           *%%%..%",
"%%%%1XXX=OOOOOOOOOOO%%%%%%%%%%%%%%%%%%%%%%%%.            ,%%.  .",
"%%%%XX-&OOOOOOOOOO:>%%%%%%%%%%%%%%%%%%%%%%,*            *%%%.  .",
"%%%%f&OOOOOOOOOO:>%%%%%%%%%%%%%%%%%%%%%%,*              ,%%%%..%",
"%>OOOOOOOOOOOO:>%%%%%%u*                  ck$1X;       *%%%%%%%%",
"%:OOOOOOOOOO:>%%%%%%>:Oo                 g$$1XXX       ,%%%%%%%%",
">OOOOOOOOOOo%%%%%%>:OOOO@+              c$$1XXX;      *%%%%%%%%.",
":OOOOOOOOOo %%%%>:OOOOOOOO@+            h$1XXX;       ,%%%%%%%. ",
"OOOOOOOOOo    +@OO&-X1$$$$1XXXX;    %%. XXXXX<%%     .%%%%%%    ",
"OOOOOOOOo   +@OO&-XX6$$$$$$1XXXX    %%%.XXXX<%%%    .%%%%%%%    ",
"oOOOOO@+   oOOO=XXXXX2$$$$$1XXXX    %%%%XXX<%%%%   .%%%%%%%%.   ",
" oOO@+    oOOO=XXXXXX3$$$$1XXXX=    %%%%<X<%%%%%  .%%%%%%%%%%.  ",
"      *, +OOO7$2XX-&OOOOO#%%%%>:+.%%%%%%%%%%%%%%%%%%%%qpXXX<%%. ",
"    *,%% @OO7$$3XjOOOOOO#%%%>:OOy%%%%%%%%%%%%%%%%%%%qe$$XXXX%%%.",
".  .%%%%+OO7$$2X-OOOOOOO%%%#OOOOO>%%%%%%%%%%%%%%%%%<$$23XXXX#%%%",
"%..%%%%%@O7$$$3X&OOOOOOO%%#OOOOOO:%%%%%%%%%%%%%%%%<X23XXXXXXO#%%",
"%%%%%%%%O4$$$1XXOOOOOOOOOOOOO=XXXXX;*,%%%%%%%%%%%9XXXX-&OOOOOOOz",
"%%%%%%%%Or$$1XXXOOOOOOOOOOOO=XXXXXXX  .%%%%%%%%%%8XX-&OOOOOOOOO+",
"%%%%%%%%4$23XXX=OOOOOOOOOOO=XXXXXXX=   ,%%%%%%%%9X-&OOOOOOOOOO@ ",
"%%%%%%%%s3XXXX=OOOOOOOOOOO=XXXXXXX=O   *%%%%%%%%t&OOOOOOOOOOOO+ ",
"  0v:>%%%%%%%%%%OOOOOO@+O=XXXXXXX=O@    %%%%%#o    +OOOOOO@+    ",
"05XXOO:>%%%%%%%%OOOO@+  =XXXXXXX=OO+    %%%%#OOo   @OOOO@+      ",
"XXX=OOOo%%%%%%%%oOOo    XXXXXXX=OO@     %%%%#OOOo +OOOOo       ;",
"XX=OOOo %%%%%%%% oo     ;XXXXX=OOO+     %%%%%#OOOo@OOOo       ;X",
"X=OOOo    .%%%%%          oOOOOOO@      %%%%%%:OOOOOOo    *, ;XX",
"=OOOo      .%%%%           oOOOOO+      %%%%%%>OOOOOo   b,%%;XXX",
"OOOo        .%%.            OOOO@      .%%%%%%%:OOOO@+   ,%#XX-&",
"OOo          ..             OOOO+     .%%%%%%%%>OOOOOO@+ *#O-&OO",
"O#%, +o             ,*     +OOOO      ck$$3XXXX=OOOOOOOOOOOOOOOO",
"#%%* @Oo        +@@+%%,*   @OOOO    ck$$$$2XXXXXOOOOOOOOOOOOOOOO",
"%%, +OOO@+     oOOOO:>%.  nOOOOO   ;$$$$$$$6XXXXOOOOOOOOOOOOOOOo",
"%%* @OOOOO@+  oOOOOOOOy++@OOOOOO  ;X$$$$$$1XXXX=OOOOOOOOOOOOOOo ",
"   0OO4r$$$7OOOOO##OOOOOOOOOOOOOO=XX$$$$$$r4Oo  OOOO7$7OOOOO    ",
"   54r$$$$$$OOOO#%%#OOOOOOOOOOOO=XXX$$$$r4OOo   OOOO$$$7OOOO    ",
"  0X$$$$$$$7OOOo%%%%+@OOOOOOOOOOXXXX$$r4OOOo    +@OO7$$$=OOO    ",
"  5X$$$$$$7OOOo %%%%  +@OOOOOOOO=XXXm4OOOOo       +@O7$$X=OO    ",
" 0XXXXXXX=OOOo           MOOOOOOOOOOOOOOOo        .%98XXXX&O    ",
" 5XXXXXX=OOOo           .%>:OOOOOOOOOOOOo          .%%98XX-O    ",
"NXXXXXXXOOOo            %%%%+@OOOOOOOOOO@+          %%%%<XX&    ",
" ;XXXXXXOOo             %%%%  +@OOOOOOOOOO@+        %%%%%<Xw    ",
"%%<XXXXXOo       o+     wX;     +@OOOOOOOOo ,*      %%%%%%%,    ",
"%%%<XXXXo       oO@     &XX;      +@OOOOOOOo%%,*    %%%%%%%*    ",
"*,%%05XX       oOOO+    O-XX;      oOOOOOOOO.%,*    %%%%%%B     ",
"  *,  0V      oOOOO@    O&XXX;    oOOOOOOOOO C      %%%%,*      ",
"@O+       *, oOOOZ      OO=XXX&OOOOOOO@+                        ",
"+O@     *,%%oOOO#%,*    OOO=XX-OOOOO:>,*                        ",
" @O+   .%%%%#OO#%%%%    OOOO&-X&OO:>%%%%.                       ",
" +OA  .%%%%%%##%%%%%    OOOOOO&S:>%%%%%%%.                      "
};
