/* XPM */
static char *_f4f3aa277434579b1bd68d4db3ceaeczSu8StvrqwtkBkCI[] = {
/* columns rows colors chars-per-pixel */
"64 64 193 2 ",
"   c None",
".  c #0E0903",
"X  c #110B05",
"o  c #150F09",
"O  c #1A130B",
"+  c #161009",
"@  c #231A11",
"#  c #342719",
"$  c #1A153C",
"%  c #14213B",
"&  c #483929",
"*  c #6A3A24",
"=  c #653B29",
"-  c #5D4D37",
";  c #6B472F",
":  c #75422A",
">  c #7B452B",
",  c #78452B",
"<  c #684A34",
"1  c #774D34",
"2  c #725338",
"3  c #6A563B",
"4  c #1D1743",
"5  c #1E1845",
"6  c #1F1949",
"7  c #201A45",
"8  c #211A4B",
"9  c #241C54",
"0  c #271E5A",
"q  c #281F5D",
"w  c #19294D",
"e  c #172646",
"r  c #0C3945",
"t  c #1B2D54",
"y  c #1D325B",
"u  c #193959",
"i  c #2C2546",
"p  c #322A4D",
"a  c #282055",
"s  c #2A215D",
"d  c #24255A",
"f  c #3B3455",
"g  c #3D365A",
"h  c #2B2162",
"j  c #0E4C5B",
"k  c #0D4655",
"l  c #025C54",
"z  c #0E5458",
"x  c #084B4F",
"c  c #335F4E",
"v  c #02645B",
"b  c #01685E",
"n  c #27695A",
"m  c #386A57",
"M  c #115366",
"N  c #0F5D6E",
"B  c #026B62",
"V  c #066B68",
"C  c #017066",
"Z  c #01746B",
"A  c #0D7569",
"S  c #02796E",
"D  c #0E766A",
"F  c #127265",
"G  c #197466",
"H  c #187669",
"J  c #147B6E",
"K  c #15786B",
"L  c #027C73",
"P  c #0A7875",
"I  c #147E71",
"U  c #0E6471",
"Y  c #495B48",
"T  c #58534E",
"R  c #5E5754",
"E  c #5F5B57",
"W  c #625C55",
"Q  c #635D59",
"!  c #615840",
"~  c #426954",
"^  c #436752",
"/  c #5A745B",
"(  c #55735B",
")  c #556951",
"_  c #6A625E",
"`  c #686757",
"'  c #7B6558",
"]  c #77795E",
"[  c #6D7355",
"{  c #6B6461",
"}  c #726864",
"|  c #7B726A",
" . c #824A2D",
".. c #844D31",
"X. c #845C3D",
"o. c #885132",
"O. c #965D3B",
"+. c #995F3B",
"@. c #9E623D",
"#. c #A2653E",
"$. c #875A42",
"%. c #95664A",
"&. c #8E6C58",
"*. c #887654",
"=. c #997955",
"-. c #987754",
";. c #94704C",
":. c #A66A43",
">. c #AD7249",
",. c #AD7A52",
"<. c #A27952",
"1. c #B57F54",
"2. c #B87F55",
"3. c #B2784F",
"4. c #87776A",
"5. c #9D7E64",
"6. c #038176",
"7. c #02857A",
"8. c #01897E",
"9. c #0C8175",
"0. c #798365",
"q. c #79896A",
"w. c #89825E",
"e. c #B68156",
"r. c #B88257",
"t. c #BB865A",
"y. c #A4805F",
"u. c #94946D",
"i. c #98926E",
"p. c #979771",
"a. c #8E8A65",
"s. c #A5876E",
"d. c #A98B72",
"f. c #A68770",
"g. c #B79579",
"h. c #BD8E60",
"j. c #C28B5C",
"k. c #C0875A",
"l. c #C28D65",
"z. c #C69263",
"x. c #CA9464",
"c. c #CE9867",
"v. c #C39469",
"b. c #CC9B6B",
"n. c #D19D6C",
"m. c #CB9E76",
"M. c #D29F71",
"N. c #D3A06F",
"B. c #CDA076",
"V. c #D4A273",
"C. c #D4A57A",
"Z. c #D6A87F",
"A. c #018D83",
"S. c #078984",
"D. c #019186",
"F. c #00958A",
"G. c #019A8E",
"H. c #0F9589",
"J. c #029D91",
"K. c #03A296",
"L. c #05A599",
"P. c #09A99C",
"I. c #15AB9E",
"U. c #10A196",
"Y. c #17AEA2",
"T. c #1AB1A5",
"R. c #4D8DB9",
"E. c #6C99B7",
"W. c #7D9CB0",
"Q. c #388BC6",
"!. c #4492C8",
"~. c #9E958A",
"^. c #879195",
"/. c #AD9C8B",
"(. c #ADA395",
"). c #AEA39A",
"_. c #B3A797",
"`. c #8D9DA5",
"'. c #D4AD8C",
"]. c #D3A884",
"[. c #CAB39E",
"{. c #D9B494",
"}. c #D2B49A",
"|. c #DDB798",
" X c #D8B598",
".X c #D0AB8C",
"XX c #C9BBAD",
"oX c #E3C4A8",
"OX c #B8D1E1",
"+X c #CBCCCA",
"@X c #EDDBCC",
"#X c #D0DBE3",
"$X c #F4EDE6",
/* pixels */
"                                                . . . . X X . . . . . . . . . o                                                 ",
"                                                . . . . X X X X X X X X . X . o                                                 ",
"                                                . X + + + + + + + + + + + o X o                                                 ",
"                                                o & s.d.d.d.d.d.d.d.d.s.y.=.# O                                                 ",
"                                                @ 3 '.{.{.{.{.{.{.{.{.'.C.m.& @                                                 ",
"                                                5.g.{.|.|.|.|.|.|.|.|.{.C.M.<.;.                                                ",
"                                                '.'.|.|.}.}.|.|.|.|.}.}.].C.x.z.                                                ",
"                                                '.oX@X+XE.W.}.|.|.[.E.E.+X@XB.z.                                                ",
"                                                ].oX$XOXQ.R..X'.'._.R.!.#X$Xm.j.                                                ",
"                                                v.].oXXX`.^.&.&.&.4.^.`.[. Xt.3.                                                ",
"                                                r.l.C.]./.f.< = = 2 g.g.v.l.>.:.                                                ",
"                                                :.>.2.,.%.$.= = = * %.%.>.>.#.:.                                                ",
"                                                +.#.:.O., : * * * * , ..@.#.@.@.                                                ",
"                                                 ...o...> , : : : , > ..O.+.O.O.                                                ",
"                                                ; ; ; ;  . .> > > >  .o.X.X.X.X.                                                ",
"                                                c c c Y , >  . .: : > 1 Y ^ ~ ~                                                 ",
"                                  I.Y.T.T.I.U.H.D D F n < ;  . .: : ; - n F A K H.U.I.Y.T.T.I.                                  ",
"                                  L.P.P.P.L.J.A.L L L K m Y 1  .> ; Y m D L L 6.F.J.L.P.P.P.L.                                  ",
"                                  K.L.L.L.K.G.A.L L 7.6.K n 3 2 2 ! G I 7.A.7.7.F.J.K.L.L.L.K.                                  ",
"                                  J.J.J.J.J.G.A.L 6.A.8.6.J m ~ ^ m 9.7.A.A.7.7.D.G.J.J.J.J.J.                                  ",
"                                  D.F.F.F.F.F.8.L 6.A.A.8.7.I I J I 8.A.A.A.6.6.A.A.D.F.F.F.F.                                  ",
"                                  6.6.6.6.7.8.6.S 6.A.A.A.A.A.8.7.7.A.D.A.A.S Z L L 6.6.6.6.7.                                  ",
"                                  G G H H K J D C L A.A.D.F.F.D.8.8.D.D.A.A.C B F G G G H H K                                   ",
"                                  / / / / / ( m v C 7.A.G.J.J.F.8.8.D.F.A.8.B v m ( / / / / /                                   ",
"                                  -.-.-.-.-.*.) l B L 8.K.K.J.G.8.8.F.F.8.7.B v [ -.-.-.-.-.-.                                  ",
"                                  2.e.e.r.e.,.` l v L 8.K.L.K.J.A.A.F.F.A.7.C B *.,.2.2.e.r.2.                                  ",
"                                  k.j.j.j.j.e.[ l b L 8.K.K.K.J.F.F.G.G.D.A.L S w.r.t.k.j.j.j.                                  ",
"                                  z.x.x.x.x.h.] l B 6.A.J.J.J.J.G.G.K.J.F.D.6.6.a.j.z.x.x.x.x.                                  ",
"                                  c.b.b.n.b.v.] l B 7.A.J.G.F.F.J.J.K.K.G.F.7.6.u.z.c.c.b.n.b.                                  ",
"                                  n.n.n.n.n.b.0.v C 8.D.G.G.D.D.J.J.L.L.G.G.7.6.u.b.b.n.n.n.n.                                  ",
"                                  n.n.n.b.n.b.0.v C 8.A.G.G.A.A.J.J.L.L.J.G.7.6.u.b.n.n.n.b.n.                                  ",
"                                  n.n.n.c.n.b.q.B S 8.A.F.F.A.A.G.J.L.L.J.G.8.7.u.b.n.n.b.c.n.                                  ",
"                                  n.N.n.c.n.b.q.B Z 7.8.A.A.7.8.F.G.J.K.G.G.A.7.u.b.n.V.b.c.n.                                  ",
"                                  n.V.n.b.n.B.q.v B S L 6.6.L 6.A.A.G.G.J.J.A.8.u.b.n.V.n.b.n.                                  ",
"                                  n.V.n.n.V.B.0.x l v B V V V Z P P S.S.J.J.A.7.p.b.n.V.n.n.V.                                  ",
"                                  V.V.V.V.V.m.] r r k k k j j j M M N U D.G.A.7.p.b.V.V.V.V.V.                                  ",
"                                  V.C.V.V.N.b.' % % e e w w w t t t y u P S.6.6.p.b.V.C.V.V.V.                                  ",
"                                  V.V.V.V.n.z.' $ $ 4 5 6 6 6 8 9 9 9 t M N V V i.b.V.V.V.V.n.                                  ",
"                                                $ 4 5 6 8 8 9 9 9 9 9 9 y y j z                                                 ",
"                                                8 8 9 9 9 9 9 9 0 0 0 0 s s y u                                                 ",
"                                                9 0 q s s h q 0 q q h h h h d d                                                 ",
"                                                0 q h h h h 0 0 0 q h h h h q s                                                 ",
"                                                9 q h h h h 9 9 9 0 h h h h 0 a                                                 ",
"                                                8 9 h h h q 9 9 8 9 h h h h 9 a                                                 ",
"                                                8 9 h h h q 9 8 8 8 h h h h 9 a                                                 ",
"                                                8 9 h h h q 9 8 8 8 q h h h 9 a                                                 ",
"                                                8 9 q h h s 9 9 8 9 q q h h 9 a                                                 ",
"                                                8 9 0 q q 0 8 8 8 8 9 0 q q 9 9                                                 ",
"                                                5 8 9 9 9 9 8 8 5 5 9 9 9 9 8 8                                                 ",
"                                                4 5 8 8 8 8 5 5 4 5 8 8 8 8 8 8                                                 ",
"                                                4 4 5 5 5 5 4 4 4 4 5 5 5 5 4 7                                                 ",
"                                                4 4 5 5 7 5 $ 4 4 4 5 5 7 5 4 7                                                 ",
"                                                4 5 5 7 8 5 4 4 4 4 5 5 8 8 4 7                                                 ",
"                                                4 5 6 8 8 8 5 4 4 4 6 8 8 8 5 8                                                 ",
"                                                4 5 8 8 8 8 5 5 4 5 8 8 8 8 5 8                                                 ",
"                                                4 5 8 8 8 8 5 5 4 5 8 8 8 8 5 8                                                 ",
"                                                4 4 5 5 8 8 5 5 4 4 5 5 8 8 6 7                                                 ",
"                                                4 4 5 5 8 8 5 5 4 4 4 5 8 8 6 7                                                 ",
"                                                4 4 7 7 8 8 7 4 4 4 7 7 8 8 7 7                                                 ",
"                                                i p f f g f p i i i f f g g p p                                                 ",
"                                                R | (.).).~.} _ R { ~.).).(.| }                                                 ",
"                                                Q 4.(._.(.~.| _ Q } /._._.(.4.|                                                 ",
"                                                T R Q Q W W W R T T Q Q W W W Q                                                 ",
"                                                Q _ Q Q E Q _ _ _ Q Q Q Q Q _ {                                                 "
};
