/* XPM */
static char *_3bb95a339624eb0a555bd5621eee4faGHoJiwH8YpcKQlkf[] = {
/* columns rows colors chars-per-pixel */
"64 64 205 2 ",
"   c None",
".  c #133902",
"X  c #163C06",
"o  c #20211F",
"O  c #262725",
"+  c #2D3728",
"@  c #3E3E3E",
"#  c #323431",
"$  c #1D430C",
"%  c #1C4609",
"&  c #0E4014",
"*  c #194C1A",
"=  c #244A13",
"-  c #2C4B1C",
";  c #284E16",
":  c #304F1F",
">  c #295316",
",  c #2B541C",
"<  c #2E591F",
"1  c #31591F",
"2  c #30541F",
"3  c #224C0E",
"4  c #1D4F2F",
"5  c #11583A",
"6  c #34402E",
"7  c #2F5A21",
"8  c #345523",
"9  c #345B24",
"0  c #385B27",
"q  c #365C29",
"w  c #3C5D2B",
"e  c #34502F",
"r  c #3A4633",
"t  c #2F5331",
"y  c #3A6426",
"u  c #3C632C",
"i  c #3E6B2B",
"p  c #386426",
"a  c #3F6931",
"s  c #3F6130",
"d  c #414B3B",
"f  c #41652D",
"g  c #426C2E",
"h  c #446632",
"j  c #456B33",
"k  c #4B693A",
"l  c #516D3B",
"z  c #4B7536",
"x  c #4E713C",
"c  c #4D7B3D",
"v  c #477533",
"b  c #537236",
"n  c #51733D",
"m  c #547D3F",
"M  c #46722E",
"N  c #0A0B5C",
"B  c #0D026C",
"V  c #0B0A63",
"C  c #14096E",
"Z  c #161967",
"A  c #120671",
"S  c #170B75",
"D  c #180C76",
"F  c #1A0E79",
"G  c #0F1170",
"H  c #1D117C",
"J  c #161675",
"K  c #20147F",
"L  c #132769",
"P  c #0D5843",
"I  c #065C47",
"U  c #005C5E",
"Y  c #01485C",
"T  c #0D6D54",
"R  c #04655D",
"E  c #0D614D",
"W  c #3C7756",
"Q  c #336A46",
"!  c #074972",
"~  c #075679",
"^  c #085166",
"/  c #016463",
"(  c #006D6D",
")  c #097468",
"_  c #007474",
"`  c #007C7C",
"'  c #066B7F",
"]  c #424242",
"[  c #4B4B4B",
"{  c #464F40",
"}  c #475241",
"|  c #464458",
" . c #4A485C",
".. c #49475B",
"X. c #546946",
"o. c #4D784B",
"O. c #537542",
"+. c #557943",
"@. c #597A47",
"#. c #5C7E4B",
"$. c #577548",
"%. c #487B57",
"&. c #5A7D53",
"*. c #466C42",
"=. c #627D4D",
"-. c #627952",
";. c #52873C",
":. c #09847D",
">. c #12867E",
",. c #14887E",
"<. c #39997F",
"1. c #36967D",
"2. c #558240",
"3. c #5C8546",
"4. c #5E824C",
"5. c #598F40",
"6. c #5B9441",
"7. c #5B845B",
"8. c #62814F",
"9. c #628A4D",
"0. c #648552",
"q. c #668A54",
"w. c #6B8D5A",
"e. c #678957",
"r. c #6C9259",
"t. c #689157",
"y. c #71925F",
"u. c #749D5F",
"i. c #78965F",
"p. c #498969",
"a. c #55916B",
"s. c #669264",
"d. c #6B9464",
"f. c #6E9A6A",
"g. c #6A9668",
"h. c #759563",
"j. c #7A9664",
"k. c #769965",
"l. c #789A67",
"z. c #7B9C69",
"x. c #608A61",
"c. c #7BA366",
"v. c #7EA16C",
"b. c #81A46D",
"n. c #86A96E",
"m. c #85A572",
"M. c #88AA73",
"N. c #89AD74",
"B. c #8DB177",
"V. c #221681",
"C. c #271B86",
"Z. c #2A1E89",
"A. c #281C87",
"S. c #1E2382",
"D. c #232B8A",
"F. c #202584",
"G. c #332792",
"H. c #362A95",
"J. c #392E93",
"K. c #3A2E99",
"L. c #3E329B",
"P. c #3E3297",
"I. c #40349F",
"U. c #4236A1",
"Y. c #463AA5",
"T. c #483CA7",
"R. c #4A3EA9",
"E. c #0B6689",
"W. c #0E749A",
"Q. c #0E6E94",
"!. c #4E42AD",
"~. c #5044AF",
"^. c #584FAB",
"/. c #5A50AC",
"(. c #5246B1",
"). c #5549B4",
"_. c #594DB6",
"`. c #5A4EB9",
"'. c #5D51BC",
"]. c #6256BE",
"[. c #6357C2",
"{. c #008181",
"}. c #008585",
"|. c #008B8B",
" X c #048988",
".X c #138B82",
"XX c #009494",
"oX c #009B9B",
"OX c #319881",
"+X c #3EA58B",
"@X c #3CA186",
"#X c #01A2A2",
"$X c #02ABAB",
"%X c #0BABAB",
"&X c #0AA3A3",
"*X c #04B2B2",
"=X c #0BB4B4",
"-X c #0DBBBB",
";X c #15B1B1",
":X c #1AB5B5",
">X c #12BEBE",
",X c #1EBCBC",
"<X c #13ACAC",
"1X c #14C2C2",
"2X c #1CC3C3",
/* pixels */
"                                                  , 7 9 g j i u q q q q 9 9 ; =                                                 ",
"                                                  < 9 9 a j c c ;.;.;.;.i p , ,                                                 ",
"                                                  7 9 p a j c 2.5.6.5.5.g p , ,                                                 ",
"                                                  p +.4.t.r.c.v.c.c.u.u.3.m j i                                                 ",
"                                                  u 4.q.k.c.N.B.n.n.v.c.9.3.z M                                                 ",
"                                                  O.q.r.k.l.m.M.z.z.b.b.9.2.z v                                                 ",
"                                                  #.e.r.h.l.m.m.l.l.b.n.9.m z v                                                 ",
"                                                  #.r 6 d } j.M.M.M.X.} 6 + k @.                                                ",
"                                                  #.+ O # # j.n.B.B.{ # O o k @.                                                ",
"                                                  z l X.-.-.=.=.8.8.-.&.j s i i                                                 ",
"                                                  M 3.9.i.j.$.l l l r.u.2.c p 1                                                 ",
"                                                  y M z n O.b l l l x x g i 9 ,                                                 ",
"                                                  y y i f h b b b b f 0 y y 1 ,                                                 ",
"                                                  = > , 9 9 f f j j 0 9 9 9 ; =                                                 ",
"                                                  X $ = 2 8 0 0 f f 9 8 8 1 = $                                                 ",
"                                                    P P * $ > > ; = $ $ 5 E P                                                   ",
"                                                    / R & . % 3 % . . . I / R                                                   ",
"                                ` ` }.}.|.}.` ` ( ( _ _ E I * % % X 5 I ( _ _ ( _ ` }.|.}.}.}.}.                                ",
"                                |.|.}.}.|.|.` ` _ _ _ ` _ _ * $ $ $ R _ ` ` ` ` ` ` }.|.|.}.|.|.                                ",
"                                XXXXXXXXoXoXXX|.}.` }.|.|.|.) T T T :.|.|.|.}.}.|.|.XXoXoXXXXXXX                                ",
"                                XXoX#X#X#X#XoXoX|.}.XXXXXXXX|.|. X XXXXXXXXX|.}.XXoX#X#X#X#XoXoX                                ",
"                                oXoX$X$X$X$X#XoXXX|.oXoX#X#XoXoXXXXX#X#XoXoXXX|.oXoX#X$X$X$X#XoX                                ",
"                                oX#X$X*X*X$X#XoXXXXXoX#X$X$X#X#XoXoX$X$X#X#XXXXXoXoX$X*X*X*X#X#X                                ",
"                                1.<.+X+X+X+X<.1. X|.oXoX*X*X=X=X%X&X=X*X#XoX|.|.OX1.@X+X+X+X@X<.                                ",
"                                s.d.f.f.f.f.d.a.>.}.XXoX=X-X>X1X;X<X-X-X#XoX|.}.p.s.f.f.f.f.d.d.                                ",
"                                h.h.k.k.z.z.h.s.,.}.XXoX-X>X1X2X:X:X>X>X$X#X|.}.a.d.l.z.l.k.h.h.                                ",
"                                k.k.k.k.v.v.l.g..X|.XXoX>X1X2X2X,X:X1X1X$X$XXX}.a.h.z.b.l.k.k.k.                                ",
"                                k.k.k.k.v.v.h.s..X|.#X$X>X1X2X,X,X,X1X1X=X$XXX|.a.d.z.b.l.k.k.k.                                ",
"                                k.k.k.k.v.v.w.x..X|.$X*X1X1X,X,X2X2X1X1X*X$XXX|.p.w.l.b.l.k.k.k.                                ",
"                                h.h.k.l.z.z.w.7.>.|.$X*X-X>X:X:X2X2X1X1X*X$XXX}.p.e.k.z.l.k.h.h.                                ",
"                                y.h.k.l.z.k.e.7.>.}.#X*X-X-X;X;X>X>X-X-X$X$X|.}.p.0.h.l.l.l.h.y.                                ",
"                                w.w.y.h.h.y.0.&.>.|.#X$X*X*X%X%X-X-X=X*X$X#X|.}.%.&.w.h.h.h.w.w.                                ",
"                                0.0.w.w.w.e.#.o..XXX#X#X$X*X#X&X%X%X*X*X$X#X|.` W $.0.w.w.w.e.e.                                ",
"                                4.4.0.0.0.0.@.o.>.|.XXXXoX#X#X#X$X$X$X#X#XoX}.` W $.4.0.0.0.8.4.                                ",
"                                @.@.#.#.#.#.@.o.) _ }.}.|.|.oX#X#X$XoXoXoXXX` _ W O.@.#.#.#.@.@.                                ",
"                                x x O.O.n x x *.^ ! ~ ~ E.E.Q.W.W.W.E.E.|.|._ ( Q x x x O.O.n x                                 ",
"                                h h j h w w h s Z G J J S.F.D.D.D.D.J Z ' }.( / Q h w w h j h h                                 ",
"                                0 0 u u 8 8 0 e Z B S D H K V.V.V.V.D C ! ~ / / t q 8 8 w f w 0                                 ",
"                                - - 8 8 - - - - N B A A S D F H H H D S V N Y U 4 - - - 8 0 : -                                 ",
"                                                  B A A S S D F F F D D V V L Y                                                 ",
"                                                  S D F F F S S S S F F D D J J                                                 ",
"                                                  F H H H H F F F F H H H H F F                                                 ",
"                                                  V.V.V.V.V.V.V.V.V.V.V.V.V.V.V.                                                ",
"                                                  C.Z.Z.Z.Z.C.C.C.C.Z.Z.Z.Z.A.C.                                                ",
"                                                  G.H.H.H.H.G.G.G.G.H.H.H.H.H.G.                                                ",
"                                                  K.L.L.L.L.K.K.K.K.L.L.L.L.K.K.                                                ",
"                                                  U.Y.T.T.T.U.U.U.U.Y.T.T.T.U.U.                                                ",
"                                                  Y.!.!.!.!.T.Y.Y.Y.!.!.!.!.R.Y.                                                ",
"                                                  ~.)._._.).(.~.~.~.)._._._.(.~.                                                ",
"                                                  )._._._._.).(.(.(._._._._.).).                                                ",
"                                                  _.^.^.^.^._._._._.^.^.^.^._._.                                                ",
"                                                  `././././._.`.`.`././././._.`.                                                ",
"                                                  `.].].].].'.`.`.`.].].].].'.`.                                                ",
"                                                  `.[.[.[.[.`.`.`.`.[.[.[.[.'.`.                                                ",
"                                                  ).'.'.'.'.).).).).`.'.'.'.).).                                                ",
"                                                  (.`.`.`.`.(.(.(.(._.`.`.`.(.(.                                                ",
"                                                  T.!.!.!.!.R.T.T.T.!.!.!.!.R.T.                                                ",
"                                                  Y.R.R.R.R.Y.Y.Y.Y.R.R.R.R.Y.Y.                                                ",
"                                                  K.I.U.U.U.P.K.K.K.I.U.U.U.P.K.                                                ",
"                                                  J.P.P.P.P.J.J.J.J.P.P.P.P.J.J.                                                ",
"                                                  | .. . . .| | | | .. . . .| |                                                 ",
"                                                  [ [ [ [ [ [ [ [ [ [ [ [ [ [ [                                                 ",
"                                                  @ ] ] ] ] @ @ @ @ ] ] ] ] @ @                                                 ",
"                                                  @ @ @ @ @ @ @ @ @ @ @ @ @ @ @                                                 "
};
