/* XPM */
static char *zombie_right1709462554[] = {
/* columns rows colors chars-per-pixel */
"64 64 140 2 ",
"   c None",
".  c #050803",
"X  c gray6",
"o  c #131313",
"O  c #1E1E1E",
"+  c #13220D",
"@  c #1A3E09",
"#  c #133115",
"$  c #15321A",
"%  c #04092A",
"&  c #1E1D2A",
"*  c #020035",
"=  c #050932",
"-  c #03003A",
";  c #0A053F",
":  c #05093C",
">  c #201E2C",
",  c #222222",
"<  c #23222E",
"1  c #312F3D",
"2  c #333333",
"3  c #1B4705",
"4  c #1D4907",
"5  c #1E420C",
"6  c #1E4A08",
"7  c #1F4911",
"8  c #224D0D",
"9  c #25510F",
"0  c #254B13",
"q  c #26441A",
"w  c #2A491F",
"e  c #265210",
"r  c #295414",
"t  c #2D5917",
"y  c #275119",
"u  c #2B531B",
"i  c #2E5A1A",
"p  c #325C1E",
"a  c #34601E",
"s  c #2E5321",
"d  c #2E5821",
"f  c #305421",
"g  c #345C25",
"h  c #38542B",
"j  c #365D29",
"k  c #3A5E2C",
"l  c #366324",
"z  c #3A6625",
"x  c #3D6827",
"c  c #376129",
"v  c #3B632B",
"b  c #3D6A29",
"n  c #3E6531",
"m  c #3F6831",
"M  c #40612F",
"N  c #426C2D",
"B  c #44712E",
"V  c #436534",
"C  c #436B34",
"Z  c #486E35",
"A  c #466D39",
"S  c #496E39",
"D  c #467233",
"F  c #4A7534",
"G  c #4C7836",
"H  c #47703A",
"J  c #4C733B",
"K  c #4E7A3A",
"L  c #50743D",
"P  c #527C3C",
"I  c #040143",
"U  c #0B0645",
"Y  c #0B034C",
"T  c #0F084D",
"R  c #17124C",
"E  c #110953",
"W  c #191353",
"Q  c #1E1953",
"!  c #1D165D",
"~  c #20195A",
"^  c #363442",
"/  c #2A255B",
"(  c #1F1760",
")  c #231C64",
"_  c #271F69",
"`  c #292265",
"'  c #2E2962",
"]  c #2B236D",
"[  c #2F286B",
"{  c #30296D",
"}  c #38336D",
"|  c #2F2771",
" . c #332B74",
".. c #372F79",
"X. c #3B3673",
"o. c #3B337C",
"O. c #3F387D",
"+. c #443E7C",
"@. c #004646",
"#. c #004B4B",
"$. c #04524E",
"%. c #1B5E44",
"&. c #015453",
"*. c #005C5C",
"=. c #1F6249",
"-. c #27795B",
";. c #2D7C5B",
":. c #317B5A",
">. c #016565",
",. c #026C6C",
"<. c #017575",
"1. c #007C7C",
"2. c #4D7641",
"3. c #4F7A42",
"4. c #527642",
"5. c #557C44",
"6. c #587847",
"7. c #557C48",
"8. c #5A7D4B",
"9. c #50803B",
"0. c #4F8144",
"q. c #568140",
"w. c #5A8444",
"e. c #5C8846",
"r. c #56874A",
"t. c #5C844B",
"y. c #5E8A48",
"u. c #5D8051",
"i. c #60804F",
"p. c #618D4B",
"a. c #64904E",
"s. c #618451",
"d. c #638A52",
"f. c #679351",
"g. c #3E3680",
"h. c #433B85",
"j. c #473F89",
"k. c #494287",
"l. c #4A438B",
"z. c #4E4690",
/* pixels */
"                                              u d g j b D C n b n k j j s y 7 7                                                 ",
"                                              l l c j v m C H C n n c j d d y y                                                 ",
"                                              b b z j c n C H A n n k j d d y u                                                 ",
"                                              j j j k n H 2.5.5.2.2.V V v c j j                                                 ",
"                                              j g j k n J 2.t.8.7.4.S C V M c f                                                 ",
"                                              m m V A S 2.7.t.t.t.t.8.P V V w .                                                 ",
"                                              D C H H J 4.7.t.u.d.d.t.5.S C j w                                                 ",
"                                              K K K K K 5.7.8.8.s.t.7.L C V c c                                                 ",
"                                              9.9.9.P P 5.8.8.8.8.8.7.2.C m c c                                                 ",
"                                              x x B G F G 6.8.8.8.6.4.S m m l g                                                 ",
"                                              g l x F F F P s.8.6.6.4.S v v g s                                                 ",
"                                              y r i z N G P w.6.V V S A j g q +                                                 ",
"                                              0 0 u a x G P w.L h M Z N g g d q                                                 ",
"                                              5 5 0 p z D K P K k V F N p u r r                                                 ",
"                                              @ 5 0 g l B F P K N N B N t t 8 8                                                 ",
"                                                        %.=.=.=.%.%.%.                                                          ",
"                                                        $.&.&.&.&.&.&.                                                          ",
"                                                        &.&.#.#.#.#.@.                                                          ",
"                                                        *.&.@.@.@.@.@.                                                          ",
"                                                        >.*.&.&.&.&.*.                                                          ",
"                                                        ,.>.*.*.*.>.,.                                                          ",
"                                                        <.,.>.>.>.,.<.                                                          ",
"                                                        1.<.,.,.,.<.1.                                                          ",
"                                                        -.;.:.:.:.;.;.                                                          ",
"                                                        2.5.r.r.r.r.q.                                                          ",
"                                                        P 9.p.a.p.y.w.                                                          ",
"                                                        P i.f.f.f.p.y.                                                          ",
"                                                        5.p.f.f.f.p.w.                                                          ",
"                                                        5.e.f.f.f.p.5.                                                          ",
"                                                        5.e.a.p.p.y.5.                                                          ",
"                                                        9.e.p.p.p.w.J                                                           ",
"                                                        P P P w.w.P F                                                           ",
"                                                        G F F G P F N                                                           ",
"                                                        B N N N F B N                                                           ",
"                                                        M N v M N N x                                                           ",
"                                                        p i p p z a a                                                           ",
"                                                        r e 0 r t t r                                                           ",
"                                                        8 8 8 8 9 9 9                                                           ",
"                                                        3 4 6 6 6 4 3                                                           ",
"                                                        # # # $ $ $ #                                                           ",
"                                                        : = % % : : :                                                           ",
"                                                        I - * * I I I                                                           ",
"                                                        Y I - - - I Y                                                           ",
"                                                        E E U U U U E                                                           ",
"                                                        ! ! ~ ! R W (                                                           ",
"                                                        ) _ ] ) ~ ~ )                                                           ",
"                                                        ] |  .{ / ` [                                                           ",
"                                                         . . . ./ {  .                                                          ",
"                                                        o.g.h.O.} X.o.                                                          ",
"                                                        o.h.j.h.X.X.o.                                                          ",
"                                                        h.l.l.l.+.+.h.                                                          ",
"                                                        h.l.z.l.+.+.h.                                                          ",
"                                                        j.j.z.l.+.+.h.                                                          ",
"                                                        h.j.l.l.+.+.h.                                                          ",
"                                                        g.h.j.j.h.h.g.                                                          ",
"                                                        o.h.h.h.h.h.o.                                                          ",
"                                                         . .o.o.o... .                                                          ",
"                                                        |  . . .}  .{                                                           ",
"                                                        _ _ ] ' ^ ^ ^                                                           ",
"                                                        ~ ) ` / 2 2 2                                                           ",
"                                                        & & < , , , ,                                                           ",
"                                                        O O , > , O O                                                           ",
"                                                        o o O o o o o                                                           ",
"                                                        X X o o o o X                                                           "
};
